<svg xmlns="http://www.w3.org/2000/svg" width="225" height="72" viewBox="0 0 225 72">
  <g fill-rule="evenodd">
    <path d="M70.3294664,29.5684455 C66.6542923,27.7865429 63.5359629,26.6171694 60.974478,26.0603248 C57.1322506,25.225058 54.9605568,23.8886311 52.6218097,22.8863109 C50.2830626,21.8839907 49.9489559,18.8770302 47.9443155,17.0394432 C45.9396752,15.2018561 38.9234339,11.8607889 34.2459397,11.8607889 C35.2140096,9.26617371 35.8265386,7.3172178 36.0835267,6.01392111 C36.3462602,4.68148694 36.5133135,2.67684657 36.5846868,0 C32.4640371,3.00696056 27.062645,5.95823666 20.3805104,8.85382831 C10.3573086,13.1972158 7.35034803,15.0348028 4.34338747,18.3758701 C2.3387471,20.6032483 1.05800464,22.6635731 0.501160093,24.5568445 L5.34570766,21.8839907 C3.45243619,25.225058 1.94895592,28.5104408 0.835266821,31.7401392 C-0.278422274,34.9698376 -0.278422274,39.3689095 0.835266821,44.937355 L3.00696056,41.4292343 C3.00696056,46.1067285 4.62180974,50.1160093 7.85150812,53.4570766 C12.6960557,58.4686775 19.2111369,60.974478 23.5545244,63.9814385 C26.450116,65.9860789 28.9559165,68.6589327 31.0719258,72 C31.8515081,64.4269142 31.2389791,59.025522 29.2343387,55.7958237 C27.2296984,52.5661253 25.6148492,49.2807425 24.3897912,45.9396752 C24.1337748,47.0050088 23.9667214,47.8402756 23.8886311,48.4454756 C23.8105408,49.0506757 23.7548563,49.9416269 23.7215777,51.1183295 C22.8862708,49.5857969 22.3689261,48.4363976 22.1695435,47.6701313 C21.7441623,46.035308 21.7603469,44.4004846 22.2180974,42.7656613 C22.9976798,39.9814385 24.5011601,37.5313225 26.7285383,35.4153132 C25.0420915,35.9043334 23.8170335,36.349809 23.0533643,36.7517401 C22.2896951,37.1536713 21.3430594,37.7662003 20.2134571,38.5893271 C21.3271462,35.4709977 23.3317865,33.2993039 26.2273782,32.0742459 C29.1229698,30.8491879 31.7958237,30.0696056 34.2459397,29.7354988 C32.9095128,23.8329466 33.0765661,20.2691415 34.7470998,19.0440835 C37.2529002,17.2064965 42.5986079,19.0440835 44.6032483,20.8816705 C46.6078886,22.7192575 50.7842227,24.2227378 54.4593968,25.5591647 C56.9095128,26.450116 59.6937355,27.1183295 62.812065,27.5638051 C63.0348028,29.3457077 63.4802784,30.6264501 64.1484919,31.4060325 C64.8167053,32.1856148 65.4292343,32.7981439 65.9860789,33.2436195 C65.2064965,36.361949 63.1461717,38.7006961 59.8051044,40.2598608 C54.7935035,42.5986079 39.7587007,40.4269142 36.0835267,43.9350348 C32.4083527,47.4431555 34.412993,51.2853828 35.5823666,53.1229698 C36.361949,54.3480278 37.3085847,56.0185615 38.4222738,58.1345708 C37.0858469,53.1229698 36.3062645,49.7819026 36.0835267,48.1113689 C35.74942,45.6055684 38.2552204,44.4361949 40.7610209,44.1020882 C43.2668213,43.7679814 56.2969838,44.1020882 58.3016241,43.7679814 C60.3062645,43.4338747 64.3155452,42.4315545 66.487239,39.424594 C67.9350348,37.4199536 69.2157773,34.1345708 70.3294664,29.5684455 Z"/>
    <path d="M36.0835267 10.5243619C36.9371763 10.5083755 37.7724431 10.6754289 38.5893271 11.025522 39.4062112 11.3756152 40.1857936 11.8210908 40.9280742 12.361949 42.1944565 10.41014 43.1410923 8.79529085 43.7679814 7.51740139 44.3948706 6.23951193 44.7846618 4.84740056 44.937355 3.34106729 43.693894 4.25443824 42.4131515 5.08970506 41.0951276 5.84686775 39.7771037 6.60403044 38.4406768 7.27224389 37.0858469 7.85150812L36.0835267 10.5243619zM36.4176334 22.5522042C37.9980642 23.7154673 39.3901755 24.4393653 40.5939675 24.7238979 41.7977595 25.0084306 43.4682931 25.0084306 45.6055684 24.7238979 44.7146172 23.2761021 43.6566125 22.3294664 42.4315545 21.8839907 41.2064965 21.4385151 39.2018561 21.6612529 36.4176334 22.5522042z"/>
    <path fill-rule="nonzero" d="M102.694416,36.5451152 C102.988971,36.5871945 103.136246,36.7765485 103.136246,37.1131829 C103.052087,39.3433857 102.988969,40.689903 102.94689,41.1527753 C102.94689,41.5314889 102.894292,41.7524019 102.789093,41.8155209 C102.683895,41.8786398 102.441943,41.8891595 102.063229,41.8470802 C101.768674,41.8050009 101.600359,41.7839616 101.55828,41.7839616 C101.389963,41.7839616 101.305806,41.8470796 101.305806,41.9733175 C101.263726,42.3520311 101.242687,42.6465818 101.242687,42.8569783 C101.453084,44.4139123 101.432044,46.2443343 101.179568,48.3482992 C101.011251,49.9893918 100.359032,51.4200665 99.2228908,52.6403661 C97.9605119,53.9869036 96.8033486,54.9126343 95.7513661,55.4175859 C95.3726525,55.5859031 94.9308265,55.7331784 94.4258749,55.8594163 C93.4159717,56.1539714 92.4060837,55.9856567 91.3961806,55.3544672 C91.1437048,55.2282293 90.8491541,55.017836 90.5125198,54.7232809 C87.8194447,52.1985231 86.010062,49.2530164 85.0843175,45.8866726 C84.3268901,43.2356768 83.7798675,41.0475862 83.4432331,39.322335 C83.148678,37.7233216 83.0014027,36.2505683 83.0014027,34.9040308 C82.9593234,31.0327354 83.8640147,27.2666947 85.7155038,23.6057958 C86.1362968,22.8062892 86.5991621,21.9857552 87.1041137,21.1441692 C87.5249067,20.5129798 87.9456933,20.0080358 88.3664863,19.6293221 C90.5546098,17.6936744 92.8478971,16.536511 95.2464171,16.1577974 C96.4246374,15.9474009 97.6028401,15.9474009 98.7810604,16.1577974 C99.6226464,16.2840353 100.096031,16.4313106 100.20123,16.5996278 C100.306428,16.767945 100.23279,17.2518496 99.9803144,18.0513563 L98.9704163,21.0810506 C98.8441784,21.3756057 98.6548244,21.5018417 98.4023486,21.4597624 C98.31819,21.4597624 98.2340327,21.4492427 98.1498741,21.4282031 L97.8973996,21.3650844 C97.813241,21.3440448 97.750123,21.3335251 97.7080437,21.3335251 C96.5719027,21.2072872 95.4147393,21.4387199 94.236519,22.0278301 C94.1523604,22.0699094 93.7526131,22.301342 93.037265,22.722135 C92.3219169,23.142928 91.7328156,23.7320293 91.2699433,24.4894567 C89.0818198,28.1924349 88.1140105,32.0426329 88.3664863,36.0401661 C88.4506449,37.00799 88.5979202,37.9337207 88.8083167,38.8173859 C89.1870304,40.5426371 89.6288564,42.3309804 90.133808,44.1824695 C90.2600459,44.6453418 90.5335572,45.4237972 90.9543502,46.5178589 C91.4593017,47.8223171 92.3219144,49.0215591 93.542214,50.1156209 L93.9209258,50.2418581 C94.4258774,49.9893823 94.9729001,49.4844383 95.5620102,48.727011 C95.6882481,48.5586938 95.7724055,48.3272611 95.8144848,48.032706 C95.982802,47.4015166 96.0669593,46.2864319 96.0669593,44.6874186 C96.0669593,43.761674 95.9617626,42.94114 95.7513661,42.225792 C95.4147318,42.1837127 95.2253778,42.1626734 95.1832985,42.1626734 C95.0570606,42.1626734 94.8571869,42.173193 94.5836715,42.1942327 C94.310156,42.2152723 94.1102824,42.225792 93.9840445,42.225792 C93.5211722,42.2678713 93.2266215,42.0574779 93.1003836,41.5946057 C92.8479078,40.8371783 92.6375145,39.427543 92.4691973,37.3656574 C92.4691973,37.2814988 92.5323153,37.1973415 92.6585532,37.1131829 C92.7427118,37.0290243 92.8479085,36.9869456 92.9741464,36.9869456 C95.9617765,36.6503112 97.7501198,36.4609572 98.33923,36.4188779 C99.180816,36.3347193 100.169665,36.2926407 101.305806,36.2926407 C101.474123,36.2926407 101.936988,36.376798 102.694416,36.5451152 Z M125.35669,36.7975897 L125.35669,39.6379281 C125.398769,41.6156551 125.230455,43.7616671 124.851741,46.0760285 C124.557186,47.843359 123.862888,49.5896236 122.768826,51.3148749 C122.095557,52.324778 121.211905,53.082194 120.117844,53.5871456 C118.392592,54.3445729 116.835682,54.6812023 115.447065,54.5970437 L114.374048,54.5970437 C112.690876,54.639123 111.028769,53.9658643 109.387676,52.5772475 C108.58817,51.8618994 107.914911,51.0413654 107.36788,50.1156209 C106.18966,48.0958146 105.516401,46.0760386 105.348084,44.0562323 C105.348084,43.7616772 105.306005,43.2988119 105.221847,42.6676224 C105.137688,42.0364329 105.095609,41.5735676 105.095609,41.2790125 C104.843134,38.4596996 104.864173,35.5562716 105.158728,32.5686414 C105.284966,31.0537867 105.768871,29.2864827 106.610457,27.2666764 C107.157487,26.0463768 108.0201,25.0996068 109.19832,24.426338 C110.755254,23.5426728 112.354244,22.9535714 113.995336,22.6590164 C114.668605,22.5327785 115.320824,22.5538178 115.952014,22.722135 C116.16241,22.8062936 116.456961,22.9009706 116.835675,23.0061688 C117.214388,23.1113671 117.4879,23.2060441 117.656217,23.2902027 C119.84434,23.9634714 121.527487,25.3731068 122.705707,27.519151 C123.547293,29.0340057 124.220552,30.6750737 124.725504,32.4424042 C125.146297,33.8731003 125.35669,35.3248143 125.35669,36.7975897 Z M110.334456,34.0203699 C110.334456,34.1466078 110.292377,35.0512992 110.208219,36.7344711 L110.208219,38.8173859 C110.418615,41.1738266 110.58693,42.9621699 110.713168,44.1824695 C110.881485,45.2765313 111.34435,46.4126553 112.101777,47.5908756 C112.480491,48.1379065 112.901278,48.5586932 113.36415,48.8532482 C113.658705,49.0215654 113.869099,49.1267621 113.995336,49.1688414 C115.510191,49.4213172 116.730472,49.3161205 117.656217,48.8532482 C118.034931,48.6428518 118.287403,48.4114191 118.413641,48.1589433 C119.04483,47.1069609 119.423538,46.2443482 119.549776,45.5710794 C119.844331,43.4671145 119.991606,42.1626759 119.991606,41.6577243 C120.033686,40.1007903 120.075764,38.7963516 120.117844,37.7443692 C120.202002,35.4300078 119.507704,32.8842485 118.034929,30.1070148 C117.572057,29.2233496 116.919837,28.6552876 116.078251,28.4028118 C114.815872,27.9820188 113.721827,28.0240975 112.796082,28.529049 C112.711924,28.5711283 112.596207,28.6237267 112.44893,28.6868456 C112.301652,28.7499646 112.206975,28.8025629 112.164896,28.8446422 C111.786182,29.0550387 111.512671,29.3495894 111.344354,29.728303 C110.713164,31.4956335 110.376535,32.9263082 110.334456,34.0203699 Z M142.906355,37.6812505 L142.906355,40.9003007 C142.948435,41.8681246 142.738041,42.8990519 142.275169,43.9931137 C141.812297,45.1292547 141.012802,45.9918674 139.876661,46.5809775 C138.908837,47.0859291 137.835831,47.4015191 136.657611,47.527757 L134.700933,47.6539943 C134.32222,47.6960736 134.069748,47.7697112 133.94351,47.8749095 C133.817272,47.9801077 133.754154,48.22206 133.754154,48.6007737 L133.754154,52.7034847 C133.754154,52.9980398 133.712075,53.2294725 133.627917,53.3977897 C133.627917,53.439869 133.52272,53.566105 133.312323,53.7765015 L133.122968,53.7765015 C131.397716,53.6923429 130.03016,53.6292249 129.020256,53.5871456 C128.725701,53.5871456 128.578426,53.4188309 128.578426,53.0821965 C128.536347,52.0302141 128.515307,51.3990341 128.515307,51.1886376 C128.599466,49.8841794 128.494269,48.158954 128.199714,46.0129098 C127.821001,43.2356762 127.631647,40.4584842 127.631647,37.6812505 C127.631647,37.5550127 127.568529,36.250574 127.442291,33.7678954 C127.273974,30.2332344 127.189816,27.5612391 127.189816,25.7518293 C127.189816,24.4052918 127.463328,23.0798138 128.010358,21.7753555 C128.936103,19.587232 130.577171,18.4090294 132.933612,18.2407122 C134.532625,18.1144743 136.005378,18.472143 137.351916,19.3137289 C138.31974,19.9449184 139.014038,20.681295 139.434831,21.522881 C139.897703,22.4486256 140.234332,23.2060416 140.444729,23.7951517 C141.202156,26.1095131 141.749179,27.9188958 142.085813,29.223354 C142.632844,31.4114775 142.885316,33.5154108 142.843237,35.5352171 L142.843237,37.6812505 L142.906355,37.6812505 Z M137.60439,40.9003007 L137.60439,40.3953517 C137.562311,37.0290079 137.541272,35.3037825 137.541272,35.2196239 C137.541272,33.8310071 137.372957,32.4213718 137.036323,30.9906757 C136.783847,30.0649311 136.257864,28.2555484 135.458357,25.5624734 C135.332119,25.1416804 135.121726,24.6998544 134.827171,24.2369821 C134.574695,23.8161892 134.174947,23.6057958 133.627917,23.6057958 C133.291282,23.5637165 133.05985,23.6899525 132.933612,23.9845076 C132.681136,24.4894592 132.5549,25.0575212 132.5549,25.6887107 L132.5549,29.6020658 C132.639058,31.9585065 132.681137,33.2208664 132.681137,33.3891836 C132.807375,34.7778005 132.912572,36.9027731 132.99673,39.7641654 C132.99673,40.1428791 133.038809,40.8582164 133.122968,41.9101988 C133.122968,42.0364367 133.186086,42.1521531 133.312323,42.2573513 C133.438561,42.3625495 133.585837,42.4151479 133.754154,42.4151479 C135.226929,42.28891 136.173699,42.2047527 136.594492,42.1626734 C137.225682,42.0364355 137.562311,41.6156488 137.60439,40.9003007 Z M158.373106,22.6590164 C158.415185,22.6590164 158.709736,22.7221344 159.256767,22.8483723 C159.509242,23.4795617 159.635478,23.8161911 159.635478,23.8582704 C160.561223,26.8879798 161.108246,28.7604805 161.276563,29.4758285 C161.44488,30.107018 161.655273,31.2852206 161.907749,33.0104719 C162.160225,34.6936438 162.454776,36.2505544 162.79141,37.6812505 C163.212203,39.5748189 163.61195,41.8470669 163.990664,44.4980627 C164.537695,47.9906444 164.874324,50.1156171 165.000562,50.8730444 C165.084721,51.5463132 165.063681,52.0722965 164.937443,52.4510102 C164.811206,52.8718032 164.579773,53.1242752 164.243139,53.2084338 C162.391649,53.6713061 161.066171,54.0079354 160.266665,54.2183319 C159.97211,54.3024905 159.782756,54.1972938 159.698597,53.9027387 L159.446123,52.8928406 C159.067409,50.5364 158.583504,48.0327193 157.994394,45.3817235 C157.952315,45.0450892 157.889197,44.7505385 157.805038,44.4980627 C157.6788,44.0772697 157.36321,43.8879157 156.858259,43.929995 L156.668903,43.929995 C154.144145,44.3087087 152.566195,44.5401414 151.935005,44.6243 C151.598371,44.6663793 151.409017,44.8557333 151.366938,45.1923676 C150.735748,48.2641564 150.37808,50.073539 150.293921,50.6205699 C150.251842,50.8309664 150.209763,51.1360367 150.167684,51.5357901 C150.125604,51.9355434 150.073006,52.3037317 150.009887,52.6403661 C149.946768,52.9770005 149.873131,53.2925905 149.788972,53.5871456 L149.725853,53.9027387 C149.557536,54.0710559 149.410261,54.1762524 149.284023,54.2183319 C148.905309,54.2604112 148.347767,54.3130095 147.611379,54.3761285 C146.874992,54.4392474 146.422646,54.4918457 146.254329,54.533925 C145.538981,54.5760043 145.107674,54.523406 144.960397,54.3761285 C144.813119,54.2288509 144.739482,53.7554659 144.739482,52.9559593 C144.781561,51.3990252 145.076111,49.2950919 145.623142,46.6440962 C146.254332,43.3198316 146.801354,40.4584823 147.264227,38.0599623 C147.432544,37.0921385 147.537741,36.1453685 147.57982,35.2196239 C147.621899,33.8310071 147.790214,32.4213718 148.084769,30.9906757 C148.084769,30.9065171 148.316202,29.8755897 148.779074,27.8978627 C148.779074,27.7716248 148.831672,27.4770742 148.93687,27.0142019 C149.042069,26.5513296 149.115706,26.2147003 149.157786,26.0043038 C149.326103,25.2047972 149.452339,24.7419318 149.536497,24.6156939 C149.578577,24.4052974 149.641695,24.1843844 149.725853,23.9529483 C149.810012,23.7215122 149.852091,23.5637172 149.852091,23.4795586 C149.852091,23.3954 149.904689,23.300723 150.009887,23.1955247 L150.199243,23.0061688 C150.220283,22.9851292 150.335999,22.9535702 150.546396,22.9114909 C150.756792,22.8694116 150.925107,22.8588919 151.051345,22.8799316 C151.177583,22.9009712 151.430055,22.9114909 151.808768,22.9114909 C152.145403,22.9114909 152.902819,22.8694122 154.081039,22.7852536 C155.848369,22.616937 157.279044,22.5748578 158.373106,22.6590164 Z M156.921377,38.1861996 C156.921377,38.1441203 156.942417,37.8916483 156.984496,37.428776 C156.900337,36.3767936 156.858259,35.8087316 156.858259,35.724573 C156.521624,33.326053 156.290192,31.684985 156.163954,30.8013198 C156.121874,30.3384475 155.974599,29.6441495 155.722123,28.7184049 C155.680044,28.4659292 155.511729,28.3186538 155.217174,28.2765745 C154.88054,28.2344952 154.585989,28.2344952 154.333513,28.2765745 C154.207276,28.2765745 154.08104,28.3817712 153.954802,28.5921677 C153.870643,28.6763263 153.828564,28.8446409 153.828564,29.0971167 C153.576089,31.2852402 153.449853,32.5686395 153.449853,32.9473532 C153.365694,34.041415 153.155301,35.6404043 152.818666,37.7443692 C152.776587,37.8285278 152.734508,38.1230784 152.692429,38.62803 C152.692429,38.6701093 152.734508,38.7332273 152.818666,38.8173859 C152.902825,38.9015445 152.965943,38.9436232 153.008022,38.9436232 C153.428815,38.9857025 153.681287,38.9857025 153.765446,38.9436232 C154.186239,38.9015439 155.111969,38.7542685 156.542666,38.5017928 C156.626824,38.5017928 156.689942,38.4807534 156.732021,38.4386741 C156.858259,38.3124362 156.921377,38.2282789 156.921377,38.1861996 Z M182.487109,35.4720985 C182.487109,35.5141778 182.318794,35.8297678 181.98216,36.4188779 L182.550227,37.1763015 C183.518051,38.3545218 184.086113,39.7641572 184.25443,41.4052498 C184.29651,42.0364392 184.338588,43.2356812 184.380668,45.0030117 C184.380668,45.6342012 184.233392,46.3284992 183.938837,47.0859266 C183.349727,48.5166227 182.655429,49.8210614 181.855922,50.9992817 C181.056416,52.1354227 180.067567,52.8297207 178.889347,53.0821965 L177.690093,53.334671 C174.744542,53.6292261 171.546563,53.7554621 168.096061,53.7133828 C168.011902,53.7133828 167.885666,53.6923435 167.717349,53.6502642 C167.464873,53.6081849 167.296559,53.4609096 167.2124,53.2084338 C166.917845,52.2406099 166.791609,51.4200759 166.833688,50.7468072 C166.833688,50.4101728 166.844208,49.8841895 166.865248,49.1688414 C166.886287,48.4534933 166.917846,47.92751 166.959926,47.5908756 C166.959926,47.3383998 167.023044,46.0970792 167.149281,43.8668764 C167.23344,43.0673697 167.275519,42.6465831 167.275519,42.6045038 C167.443836,41.4262834 167.570072,39.2381928 167.65423,36.0401661 C167.69631,34.0203599 167.717349,32.0637019 167.717349,30.1701335 C167.717349,29.7493405 167.67527,28.6132165 167.591112,26.7617274 C167.549033,25.7518242 167.591111,25.0575262 167.717349,24.6788126 C167.843587,24.2159403 168.117098,23.9634683 168.537891,23.921389 C168.958684,23.8793097 169.316353,23.837231 169.610908,23.7951517 C170.536653,23.7951517 171.672777,23.7320337 173.019314,23.6057958 C174.786645,23.3953993 176.617067,23.4795567 178.510635,23.8582704 C178.847269,23.9424289 179.162859,24.0897043 179.457414,24.3001008 C182.571283,26.7407 183.812603,29.8755607 183.181414,33.7047768 C183.097255,34.2518077 182.865822,34.840909 182.487109,35.4720985 Z M172.893077,40.3953517 L172.893077,44.4980627 L172.829958,44.4980627 L172.829958,48.032706 C172.829958,48.2010232 172.850998,48.4955739 172.893077,48.9163669 C172.893077,49.210922 173.040352,49.3792366 173.334907,49.4213159 C175.607189,49.5896331 177.290336,48.8322171 178.384398,47.1490452 C178.721032,46.6861729 178.931425,46.2022683 179.015584,45.6973167 C179.225981,44.6032549 179.162863,43.1936196 178.826228,41.4683684 C178.615832,40.2901481 177.858416,39.6589681 176.553957,39.5748095 C176.301482,39.5327302 176.070049,39.5327302 175.859653,39.5748095 C175.354701,39.6168888 174.534167,39.7010461 173.398026,39.827284 C173.061392,39.8693633 172.893077,40.0587173 172.893077,40.3953517 Z M173.082433,28.7184049 C173.040353,28.9288014 172.998275,29.7493354 172.956195,31.1800316 L173.019314,31.1800316 L173.019314,33.8310141 C173.061393,33.9572519 173.124511,34.0624486 173.20867,34.1466072 C173.292829,34.2307658 173.398025,34.2728445 173.524263,34.2728445 C174.618325,34.2307652 175.270544,34.1886865 175.480941,34.1466072 C176.238368,34.0624486 176.869548,33.7889373 177.3745,33.326065 C177.921531,32.8631927 178.152963,32.2740914 178.068805,31.5587433 C177.900487,30.4646816 177.395543,29.5599903 176.553957,28.8446422 C176.343561,28.6342457 176.154207,28.5080097 175.98589,28.4659304 C175.102225,28.1713753 174.281691,28.087218 173.524263,28.2134559 C173.229708,28.2555352 173.082433,28.4238499 173.082433,28.7184049 Z M186.213794,27.3297951 C186.213794,25.8990989 186.234833,25.1206436 186.276913,24.9944057 C186.276913,24.4894541 186.508345,24.2159428 186.971217,24.1738635 C187.981121,24.1317842 189.285559,24.0686662 190.884573,23.9845076 C191.05289,23.9845076 191.189645,24.0371059 191.294844,24.1423042 C191.400042,24.2475024 191.46316,24.3737384 191.4842,24.521016 C191.505239,24.6682935 191.515759,24.8366082 191.515759,25.025965 L191.515759,26.1305411 C191.557838,26.5092547 191.599917,27.1614741 191.641996,28.0872186 C191.684075,29.0129632 191.705115,29.7283005 191.705115,30.2332521 C191.789273,31.8322654 191.831352,32.8947517 191.831352,33.420743 C191.831352,33.9467342 191.852391,35.2301335 191.894471,37.2709794 C191.93655,39.3118254 191.957589,40.8792557 191.957589,41.9733175 C191.999669,42.3941104 192.104865,44.0982964 192.273182,47.0859266 C192.273182,47.3804817 192.420458,47.5487963 192.715013,47.5908756 L192.778132,47.5908756 C192.820211,47.6329549 192.862289,47.6539943 192.904369,47.6539943 C195.555365,47.7802321 197.091236,47.8643895 197.512029,47.9064688 C198.05906,47.9485481 198.826995,47.9801071 199.815859,48.0011467 C200.804722,48.0221864 201.446422,48.032706 201.740977,48.032706 C202.288008,48.0747853 202.561519,48.306218 202.561519,48.727011 L202.561519,52.1354171 C202.561519,52.5982893 202.309047,52.8718007 201.804096,52.9559593 C200.878351,53.1242765 200.226132,53.2084338 199.847418,53.2084338 C198.753356,53.2505131 197.575154,53.2505131 196.312775,53.2084338 C195.260792,53.1663545 194.08259,53.0821972 192.778132,52.9559593 C191.768228,52.8718007 190.821458,52.766604 189.937793,52.6403661 C188.969969,52.5141282 188.233593,51.9671055 187.728641,50.9992817 C187.307848,50.1576957 187.055376,49.1267684 186.971217,47.9064688 C186.887059,46.8544863 186.823941,45.7394017 186.781862,44.5611813 C186.739782,43.4671196 186.687184,41.5525403 186.624065,38.8173859 C186.560946,36.0822316 186.508348,33.9572589 186.466268,32.4424042 C186.466268,32.3582456 186.40315,30.9486102 186.276913,28.2134559 C186.276913,28.1292973 186.255873,27.8347466 186.213794,27.3297951 Z M224.845082,36.7975897 L224.845082,39.6379281 C224.887161,41.6156551 224.718847,43.7616671 224.340133,46.0760285 C224.045578,47.843359 223.35128,49.5896236 222.257218,51.3148749 C221.583949,52.324778 220.700297,53.082194 219.606236,53.5871456 C217.880984,54.3445729 216.324074,54.6812023 214.935457,54.5970437 L213.86244,54.5970437 C212.179268,54.639123 210.517161,53.9658643 208.876068,52.5772475 C208.076562,51.8618994 207.403303,51.0413654 206.856272,50.1156209 C205.678052,48.0958146 205.004793,46.0760386 204.836476,44.0562323 C204.836476,43.7616772 204.794397,43.2988119 204.710239,42.6676224 C204.62608,42.0364329 204.584001,41.5735676 204.584001,41.2790125 C204.331526,38.4596996 204.352565,35.5562716 204.64712,32.5686414 C204.773358,31.0537867 205.257263,29.2864827 206.098849,27.2666764 C206.645879,26.0463768 207.508492,25.0996068 208.686712,24.426338 C210.243646,23.5426728 211.842636,22.9535714 213.483728,22.6590164 C214.156997,22.5327785 214.809217,22.5538178 215.440406,22.722135 C215.650802,22.8062936 215.945353,22.9009706 216.324067,23.0061688 C216.70278,23.1113671 216.976292,23.2060441 217.144609,23.2902027 C219.332732,23.9634714 221.015879,25.3731068 222.194099,27.519151 C223.035685,29.0340057 223.708944,30.6750737 224.213896,32.4424042 C224.634689,33.8731003 224.845082,35.3248143 224.845082,36.7975897 Z M209.822848,34.0203699 C209.822848,34.1466078 209.780769,35.0512992 209.696611,36.7344711 C209.696611,38.0810086 209.696611,38.7753066 209.696611,38.8173859 C209.907007,41.1738266 210.075322,42.9621699 210.20156,44.1824695 C210.369877,45.2765313 210.832742,46.4126553 211.590169,47.5908756 C211.968883,48.1379065 212.38967,48.5586932 212.852542,48.8532482 C213.147097,49.0215654 213.357491,49.1267621 213.483728,49.1688414 C214.998583,49.4213172 216.218864,49.3161205 217.144609,48.8532482 C217.523323,48.6428518 217.775795,48.4114191 217.902033,48.1589433 C218.533222,47.1069609 218.91193,46.2443482 219.038168,45.5710794 C219.332723,43.4671145 219.479998,42.1626759 219.479998,41.6577243 C219.522078,40.1007903 219.564156,38.7963516 219.606236,37.7443692 C219.690394,35.4300078 218.996096,32.8842485 217.523321,30.1070148 C217.060449,29.2233496 216.408229,28.6552876 215.566643,28.4028118 C214.304264,27.9820188 213.210219,28.0240975 212.284474,28.529049 C212.200316,28.5711283 212.084599,28.6237267 211.937322,28.6868456 C211.790044,28.7499646 211.695367,28.8025629 211.653288,28.8446422 C211.274574,29.0550387 211.001063,29.3495894 210.832746,29.728303 C210.201556,31.4956335 209.864927,32.9263082 209.822848,34.0203699 Z"/>
  </g>
</svg>
