<svg width="388" height="146" viewBox="0 0 388 146" fill="none" xmlns="http://www.w3.org/2000/svg">
<path d="M179.157 71.9085C179.648 71.9787 179.894 72.2942 179.894 72.8553C179.753 76.5723 179.648 78.8165 179.578 79.588C179.578 80.2192 179.49 80.5873 179.315 80.6925C179.14 80.7977 178.737 80.8153 178.105 80.7451C177.614 80.675 177.334 80.6399 177.264 80.6399C176.983 80.6399 176.843 80.7451 176.843 80.9555C176.773 81.5867 176.738 82.0776 176.738 82.4283C177.088 85.0232 177.053 88.0739 176.633 91.5805C176.352 94.3157 175.265 96.7001 173.371 98.7339C171.268 100.978 169.339 102.521 167.586 103.363C166.954 103.643 166.218 103.889 165.376 104.099C163.693 104.59 162.01 104.309 160.327 103.257C159.906 103.047 159.415 102.696 158.854 102.205C154.366 97.9975 151.35 93.0884 149.807 87.4778C148.545 83.0595 147.633 79.4126 147.072 76.5372C146.581 73.8722 146.336 71.4176 146.336 69.1734C146.266 62.7212 147.773 56.4445 150.859 50.343C151.561 49.0105 152.332 47.6429 153.174 46.2403C153.875 45.1883 154.576 44.3467 155.277 43.7155C158.924 40.4895 162.747 38.5609 166.744 37.9297C168.708 37.579 170.671 37.579 172.635 37.9297C174.038 38.1401 174.827 38.3855 175.002 38.666C175.177 38.9466 175.055 39.7531 174.634 41.0856L172.951 46.1351C172.74 46.626 172.425 46.8364 172.004 46.7663C171.864 46.7663 171.723 46.7487 171.583 46.7137L171.162 46.6085C171.022 46.5734 170.917 46.5559 170.847 46.5559C168.953 46.3455 167.025 46.7312 165.061 47.7131C164.921 47.7832 164.254 48.1689 163.062 48.8702C161.87 49.5715 160.888 50.5534 160.117 51.8158C156.47 57.9874 154.857 64.4044 155.277 71.0669C155.418 72.68 155.663 74.2229 156.014 75.6956C156.645 78.5711 157.381 81.5516 158.223 84.6375C158.433 85.4089 158.889 86.7063 159.591 88.5298C160.432 90.7039 161.87 92.7026 163.904 94.526L164.535 94.7364C165.376 94.3156 166.288 93.4741 167.27 92.2117C167.48 91.9312 167.621 91.5454 167.691 91.0545C167.971 90.0025 168.112 88.1441 168.112 85.479C168.112 83.9361 167.936 82.5686 167.586 81.3763C167.025 81.3062 166.709 81.2711 166.639 81.2711C166.428 81.2711 166.095 81.2887 165.639 81.3237C165.184 81.3588 164.85 81.3763 164.64 81.3763C163.869 81.4465 163.378 81.0958 163.167 80.3243C162.747 79.062 162.396 76.7126 162.115 73.2761C162.115 73.1358 162.221 72.9956 162.431 72.8553C162.571 72.715 162.747 72.6449 162.957 72.6449C167.936 72.0839 170.917 71.7683 171.899 71.6981C173.301 71.5579 174.949 71.4877 176.843 71.4877C177.124 71.4877 177.895 71.628 179.157 71.9085ZM216.928 72.3293V77.0632C216.998 80.3594 216.717 83.9361 216.086 87.7934C215.595 90.7389 214.438 93.6494 212.615 96.5248C211.493 98.208 210.02 99.4703 208.196 100.312C205.321 101.574 202.726 102.135 200.412 101.995H198.623C195.818 102.065 193.048 100.943 190.313 98.6287C188.98 97.4365 187.858 96.0689 186.946 94.526C184.983 91.1597 183.861 87.7934 183.58 84.4271C183.58 83.9361 183.51 83.1647 183.37 82.1127C183.229 81.0607 183.159 80.2893 183.159 79.7984C182.739 75.0995 182.774 70.2605 183.265 65.2811C183.475 62.7563 184.281 59.8108 185.684 56.4445C186.596 54.4106 188.033 52.8327 189.997 51.7106C192.592 50.2378 195.257 49.2559 197.992 48.765C199.114 48.5546 200.201 48.5897 201.253 48.8702C201.604 49.0105 202.095 49.1683 202.726 49.3436C203.357 49.5189 203.813 49.6767 204.094 49.817C207.741 50.9391 210.546 53.2885 212.51 56.8653C213.912 59.39 215.034 62.1251 215.876 65.0707C216.577 67.4552 216.928 69.8747 216.928 72.3293ZM191.891 67.7006C191.891 67.911 191.821 69.4188 191.68 72.2241V75.6956C192.031 79.623 192.312 82.6036 192.522 84.6375C192.802 86.4609 193.574 88.3544 194.836 90.3181C195.467 91.2298 196.169 91.9312 196.94 92.4221C197.431 92.7026 197.782 92.8779 197.992 92.9481C200.517 93.3689 202.551 93.1935 204.094 92.4221C204.725 92.0714 205.146 91.6857 205.356 91.2649C206.408 89.5116 207.039 88.0739 207.25 86.9518C207.741 83.4452 207.986 81.2711 207.986 80.4295C208.056 77.8347 208.126 75.6606 208.196 73.9073C208.337 70.05 207.18 65.8071 204.725 61.1784C203.953 59.7056 202.866 58.7588 201.464 58.338C199.36 57.6367 197.536 57.7068 195.993 58.5484C195.853 58.6185 195.66 58.7062 195.415 58.8114C195.169 58.9166 195.012 59.0043 194.942 59.0744C194.31 59.4251 193.854 59.916 193.574 60.5472C192.522 63.4927 191.961 65.8772 191.891 67.7006ZM246.177 73.8021V79.1672C246.247 80.7802 245.897 82.4984 245.125 84.3219C244.354 86.2154 243.021 87.6531 241.128 88.635C239.515 89.4766 237.726 90.0025 235.763 90.2129L232.502 90.4233C231.87 90.4935 231.45 90.6162 231.239 90.7915C231.029 90.9669 230.924 91.3701 230.924 92.0013V98.8391C230.924 99.3301 230.853 99.7158 230.713 99.9963C230.713 100.066 230.538 100.277 230.187 100.628H229.872C226.996 100.487 224.717 100.382 223.034 100.312C222.543 100.312 222.297 100.031 222.297 99.4703C222.227 97.717 222.192 96.6651 222.192 96.3144C222.332 94.1403 222.157 91.2649 221.666 87.6882C221.035 83.0595 220.719 78.4308 220.719 73.8021C220.719 73.5917 220.614 71.4176 220.404 67.2798C220.123 61.3887 219.983 56.9354 219.983 53.9197C219.983 51.6755 220.439 49.4664 221.351 47.2923C222.894 43.6454 225.629 41.6817 229.556 41.4012C232.221 41.1908 234.676 41.7869 236.92 43.1895C238.533 44.2415 239.69 45.4688 240.391 46.8715C241.163 48.4144 241.724 49.6767 242.075 50.6586C243.337 54.5159 244.249 57.5315 244.81 59.7056C245.721 63.3525 246.142 66.859 246.072 70.2254V73.8021H246.177ZM237.341 79.1672V78.3256C237.271 72.715 237.235 69.8396 237.235 69.6994C237.235 67.385 236.955 65.0356 236.394 62.6511C235.973 61.1082 235.096 58.0926 233.764 53.6041C233.554 52.9028 233.203 52.1664 232.712 51.395C232.291 50.6936 231.625 50.343 230.713 50.343C230.152 50.2729 229.766 50.4833 229.556 50.9742C229.135 51.8158 228.925 52.7625 228.925 53.8145V60.3368C229.065 64.2642 229.135 66.3681 229.135 66.6486C229.346 68.963 229.521 72.5046 229.661 77.2736C229.661 77.9048 229.731 79.097 229.872 80.8503C229.872 81.0607 229.977 81.2536 230.187 81.4289C230.398 81.6043 230.643 81.6919 230.924 81.6919C233.378 81.4815 234.956 81.3413 235.657 81.2711C236.709 81.0607 237.271 80.3594 237.341 79.1672ZM271.955 48.765C272.025 48.765 272.516 48.8702 273.428 49.0806C273.849 50.1326 274.059 50.6936 274.059 50.7638C275.602 55.8133 276.514 58.9341 276.794 60.1264C277.075 61.1784 277.425 63.142 277.846 66.0175C278.267 68.8227 278.758 71.4176 279.319 73.8021C280.02 76.958 280.687 80.7451 281.318 85.1634C282.229 90.9844 282.791 94.526 283.001 95.7884C283.141 96.9105 283.106 97.7872 282.896 98.4184C282.685 99.1197 282.3 99.5405 281.739 99.6807C278.653 100.452 276.444 101.013 275.111 101.364C274.62 101.504 274.305 101.329 274.164 100.838L273.744 99.1547C273.112 95.2273 272.306 91.0545 271.324 86.6362C271.254 86.0752 271.149 85.5842 271.008 85.1634C270.798 84.4621 270.272 84.1465 269.43 84.2167H269.115C264.907 84.8479 262.277 85.2336 261.225 85.3738C260.664 85.444 260.348 85.7596 260.278 86.3206C259.226 91.4403 258.63 94.4559 258.49 95.3676C258.42 95.7183 258.35 96.2267 258.279 96.893C258.209 97.5592 258.122 98.1729 258.016 98.7339C257.911 99.295 257.789 99.821 257.648 100.312L257.543 100.838C257.263 101.118 257.017 101.294 256.807 101.364C256.176 101.434 255.246 101.522 254.019 101.627C252.792 101.732 252.038 101.82 251.757 101.89C250.565 101.96 249.846 101.872 249.601 101.627C249.355 101.381 249.232 100.592 249.232 99.2599C249.303 96.665 249.794 93.1585 250.705 88.7402C251.757 83.1997 252.669 78.4308 253.44 74.4333C253.721 72.8202 253.896 71.2423 253.966 69.6994C254.036 67.385 254.317 65.0356 254.808 62.6511C254.808 62.5109 255.194 60.7926 255.965 57.4964C255.965 57.286 256.053 56.7951 256.228 56.0237C256.403 55.2522 256.526 54.6912 256.596 54.3405C256.877 53.008 257.087 52.2366 257.227 52.0262C257.298 51.6755 257.403 51.3073 257.543 50.9216C257.683 50.5359 257.753 50.2729 257.753 50.1326C257.753 49.9923 257.841 49.8345 258.016 49.6592L258.332 49.3436C258.367 49.3085 258.56 49.2559 258.911 49.1858C259.261 49.1157 259.542 49.0982 259.752 49.1332C259.963 49.1683 260.383 49.1858 261.015 49.1858C261.576 49.1858 262.838 49.1157 264.802 48.9754C267.747 48.6949 270.132 48.6248 271.955 48.765ZM269.536 74.6437C269.536 74.5735 269.571 74.1527 269.641 73.3813C269.501 71.628 269.43 70.6812 269.43 70.541C268.869 66.5434 268.484 63.8083 268.273 62.3355C268.203 61.5641 267.958 60.4069 267.537 58.864C267.467 58.4432 267.186 58.1978 266.695 58.1276C266.134 58.0575 265.643 58.0575 265.223 58.1276C265.012 58.1276 264.802 58.303 264.591 58.6536C264.451 58.7939 264.381 59.0744 264.381 59.4952C263.96 63.1421 263.75 65.2811 263.75 65.9123C263.609 67.7357 263.259 70.4007 262.698 73.9073C262.628 74.0475 262.558 74.5385 262.487 75.3801C262.487 75.4502 262.558 75.5554 262.698 75.6956C262.838 75.8359 262.943 75.906 263.013 75.906C263.715 75.9762 264.135 75.9762 264.276 75.906C264.977 75.8359 266.52 75.5904 268.904 75.1697C269.045 75.1697 269.15 75.1346 269.22 75.0645C269.43 74.8541 269.536 74.7138 269.536 74.6437ZM312.145 70.1202C312.145 70.1903 311.865 70.7163 311.304 71.6981L312.25 72.9605C313.863 74.9242 314.81 77.2736 315.091 80.0088C315.161 81.0607 315.231 83.0595 315.301 86.005C315.301 87.057 315.056 88.2142 314.565 89.4766C313.583 91.861 312.426 94.0351 311.093 95.9988C309.761 97.8924 308.113 99.0495 306.149 99.4703L304.15 99.8911C299.241 100.382 293.911 100.592 288.16 100.522C288.02 100.522 287.809 100.487 287.529 100.417C287.108 100.347 286.828 100.102 286.687 99.6807C286.196 98.0677 285.986 96.7001 286.056 95.578C286.056 95.017 286.074 94.1403 286.109 92.9481C286.144 91.7558 286.196 90.8792 286.267 90.3181C286.267 89.8973 286.372 87.8285 286.582 84.1115C286.722 82.7789 286.793 82.0776 286.793 82.0075C287.073 80.0438 287.283 76.397 287.424 71.0669C287.494 67.7006 287.529 64.4395 287.529 61.2836C287.529 60.5822 287.459 58.6887 287.319 55.6029C287.248 53.9197 287.318 52.7625 287.529 52.1314C287.739 51.3599 288.195 50.9391 288.896 50.869C289.598 50.7988 290.194 50.7287 290.685 50.6586C292.228 50.6586 294.121 50.5534 296.366 50.343C299.311 49.9923 302.362 50.1326 305.518 50.7638C306.079 50.904 306.605 51.1495 307.096 51.5002C312.285 55.5678 314.354 60.7926 313.302 67.1746C313.162 68.0863 312.776 69.0682 312.145 70.1202ZM296.155 78.3256V85.1634H296.05V91.0545C296.05 91.335 296.085 91.826 296.155 92.5273C296.155 93.0182 296.401 93.2987 296.892 93.3689C300.679 93.6494 303.484 92.387 305.307 89.5817C305.868 88.8103 306.219 88.0038 306.359 87.1622C306.71 85.3388 306.605 82.9894 306.044 80.1139C305.693 78.1502 304.431 77.0983 302.257 76.958C301.836 76.8879 301.45 76.8879 301.099 76.958C300.258 77.0281 298.89 77.1684 296.997 77.3788C296.436 77.4489 296.155 77.7645 296.155 78.3256ZM296.471 58.864C296.401 59.2147 296.33 60.5822 296.26 62.9667H296.366V67.385C296.436 67.5954 296.541 67.7707 296.681 67.911C296.821 68.0513 296.997 68.1214 297.207 68.1214C299.031 68.0513 300.118 67.9811 300.468 67.911C301.731 67.7707 302.783 67.3149 303.624 66.5434C304.536 65.772 304.922 64.7901 304.781 63.5979C304.501 61.7745 303.659 60.2666 302.257 59.0744C301.906 58.7237 301.59 58.5133 301.31 58.4432C299.837 57.9523 298.469 57.812 297.207 58.0224C296.716 58.0926 296.471 58.3731 296.471 58.864ZM318.356 56.5497C318.356 54.1652 318.391 52.8677 318.462 52.6573C318.462 51.8158 318.847 51.3599 319.619 51.2898C321.302 51.2196 323.476 51.1144 326.141 50.9742C326.421 50.9742 326.649 51.0618 326.825 51.2372C327 51.4125 327.105 51.6229 327.14 51.8684C327.175 52.1138 327.193 52.3943 327.193 52.7099V54.5509C327.263 55.1821 327.333 56.2691 327.403 57.812C327.473 59.3549 327.508 60.5472 327.508 61.3888C327.649 64.0538 327.719 65.8246 327.719 66.7012C327.719 67.5779 327.754 69.7169 327.824 73.1183C327.894 76.5197 327.929 79.1321 327.929 80.9555C327.999 81.6569 328.175 84.4972 328.455 89.4766C328.455 89.9675 328.701 90.248 329.192 90.3181H329.297C329.367 90.3883 329.437 90.4233 329.507 90.4233C333.926 90.6337 336.485 90.774 337.187 90.8441C338.098 90.9143 339.378 90.9669 341.026 91.0019C342.675 91.037 343.744 91.0545 344.235 91.0545C345.147 91.1246 345.603 91.5104 345.603 92.2117V97.8924C345.603 98.6638 345.182 99.1197 344.34 99.2599C342.797 99.5405 341.71 99.6807 341.079 99.6807C339.256 99.7509 337.292 99.7509 335.188 99.6807C333.435 99.6106 331.471 99.4703 329.297 99.2599C327.614 99.1197 326.036 98.9443 324.563 98.7339C322.95 98.5235 321.723 97.6118 320.881 95.9988C320.18 94.5962 319.759 92.878 319.619 90.8441C319.478 89.0908 319.373 87.2323 319.303 85.2686C319.233 83.4452 319.145 80.2542 319.04 75.6956C318.935 71.1371 318.847 67.5954 318.777 65.0707C318.777 64.9304 318.672 62.581 318.462 58.0224C318.462 57.8822 318.426 57.3912 318.356 56.5497ZM382.742 72.3293V77.0632C382.812 80.3594 382.531 83.9361 381.9 87.7934C381.409 90.7389 380.252 93.6494 378.429 96.5248C377.307 98.208 375.834 99.4703 374.01 100.312C371.135 101.574 368.54 102.135 366.226 101.995H364.437C361.632 102.065 358.862 100.943 356.127 98.6287C354.794 97.4365 353.672 96.0689 352.76 94.526C350.797 91.1597 349.675 87.7934 349.394 84.4271C349.394 83.9361 349.324 83.1647 349.184 82.1127C349.043 81.0607 348.973 80.2893 348.973 79.7984C348.553 75.0995 348.588 70.2605 349.079 65.2811C349.289 62.7563 350.095 59.8108 351.498 56.4445C352.41 54.4106 353.847 52.8327 355.811 51.7106C358.406 50.2378 361.071 49.2559 363.806 48.765C364.928 48.5546 366.015 48.5897 367.067 48.8702C367.418 49.0105 367.909 49.1683 368.54 49.3436C369.171 49.5189 369.627 49.6767 369.908 49.817C373.555 50.9391 376.36 53.2885 378.323 56.8653C379.726 59.39 380.848 62.1251 381.69 65.0707C382.391 67.4552 382.742 69.8747 382.742 72.3293ZM357.705 67.7006C357.705 67.911 357.635 69.4188 357.494 72.2241C357.494 74.4683 357.494 75.6255 357.494 75.6956C357.845 79.623 358.126 82.6036 358.336 84.6375C358.616 86.4609 359.388 88.3544 360.65 90.3181C361.281 91.2298 361.983 91.9312 362.754 92.4221C363.245 92.7026 363.596 92.8779 363.806 92.9481C366.331 93.3689 368.365 93.1935 369.908 92.4221C370.539 92.0714 370.96 91.6857 371.17 91.2649C372.222 89.5116 372.853 88.0739 373.064 86.9518C373.555 83.4452 373.8 81.2711 373.8 80.4295C373.87 77.8347 373.94 75.6606 374.01 73.9073C374.151 70.05 372.993 65.8071 370.539 61.1784C369.767 59.7056 368.68 58.7588 367.278 58.338C365.174 57.6367 363.35 57.7068 361.807 58.5484C361.667 58.6185 361.474 58.7062 361.229 58.8114C360.983 58.9166 360.826 59.0043 360.755 59.0744C360.124 59.4251 359.668 59.916 359.388 60.5472C358.336 63.4927 357.775 65.8772 357.705 67.7006Z" fill="black"/>
<path fill-rule="evenodd" clip-rule="evenodd" d="M178.105 80.7451C177.614 80.675 177.334 80.6399 177.264 80.6399C176.983 80.6399 176.843 80.7451 176.843 80.9555C176.773 81.5867 176.738 82.0776 176.738 82.4283C176.873 83.4281 176.951 84.4956 176.971 85.6308C176.971 85.6325 176.971 85.6342 176.971 85.6359C177.004 87.4455 176.891 89.427 176.633 91.5805C176.352 94.3157 175.265 96.7001 173.371 98.7339C171.268 100.978 169.339 102.521 167.586 103.363C166.954 103.643 166.218 103.889 165.376 104.099C163.693 104.59 162.01 104.309 160.327 103.257C159.906 103.047 159.415 102.696 158.854 102.205C154.366 97.9975 151.35 93.0884 149.807 87.4778C148.545 83.0595 147.633 79.4126 147.072 76.5372C146.581 73.8722 146.336 71.4176 146.336 69.1734C146.266 62.7212 147.773 56.4445 150.859 50.343C151.561 49.0105 152.332 47.6429 153.174 46.2403C153.875 45.1883 154.576 44.3467 155.277 43.7155C158.924 40.4895 162.747 38.5609 166.744 37.9297C168.708 37.579 170.671 37.579 172.635 37.9297C174.038 38.1401 174.827 38.3855 175.002 38.666C175.177 38.9466 175.055 39.7531 174.634 41.0856L172.951 46.1351C172.74 46.626 172.425 46.8364 172.004 46.7663C171.864 46.7663 171.723 46.7487 171.583 46.7137L171.162 46.6085C171.022 46.5734 170.917 46.5559 170.847 46.5559C168.953 46.3455 167.025 46.7312 165.061 47.7131C164.921 47.7832 164.254 48.1689 163.062 48.8702C161.87 49.5715 160.888 50.5534 160.117 51.8158C156.47 57.9874 154.857 64.4044 155.277 71.0669C155.418 72.68 155.663 74.2229 156.014 75.6956C156.645 78.5711 157.381 81.5516 158.223 84.6375C158.433 85.4089 158.889 86.7063 159.591 88.5298C160.432 90.7039 161.87 92.7026 163.904 94.526L164.535 94.7364C165.376 94.3156 166.288 93.4741 167.27 92.2117C167.48 91.9312 167.621 91.5454 167.691 91.0545C167.971 90.0025 168.112 88.1441 168.112 85.479C168.112 83.9361 167.936 82.5686 167.586 81.3763C167.025 81.3062 166.709 81.2711 166.639 81.2711C166.428 81.2711 166.095 81.2887 165.639 81.3237C165.184 81.3588 164.85 81.3763 164.64 81.3763C163.869 81.4465 163.378 81.0958 163.167 80.3243C162.747 79.062 162.396 76.7126 162.115 73.2761C162.115 73.1358 162.221 72.9956 162.431 72.8553C162.571 72.715 162.747 72.6449 162.957 72.6449C167.936 72.0839 170.917 71.7683 171.899 71.6981C173.301 71.5579 174.949 71.4877 176.843 71.4877C177.012 71.4877 177.358 71.5385 177.883 71.6401C178.23 71.7074 178.655 71.7968 179.157 71.9085C179.648 71.9787 179.894 72.2942 179.894 72.8553C179.753 76.5723 179.648 78.8165 179.578 79.588C179.578 79.6617 179.577 79.7318 179.575 79.7984C179.57 79.9176 179.562 80.0253 179.55 80.1216C179.512 80.4313 179.433 80.6216 179.315 80.6925C179.148 80.7926 178.776 80.8133 178.197 80.7548C178.167 80.7518 178.136 80.7486 178.105 80.7451ZM181.222 94.3773C180.535 97.2823 179.123 99.8945 177.031 102.141L177.025 102.147L177.019 102.154C174.71 104.617 172.289 106.651 169.749 107.87L169.683 107.902L169.616 107.932C168.69 108.343 167.699 108.668 166.675 108.928C163.543 109.81 160.503 109.205 157.858 107.609C156.996 107.145 156.221 106.545 155.562 105.968L155.497 105.912L155.435 105.853C150.321 101.059 146.796 95.3684 144.993 88.8282C143.714 84.3503 142.763 80.5602 142.165 77.4948L142.16 77.4689L142.155 77.443C141.622 74.5486 141.338 71.7956 141.336 69.2008C141.261 61.9081 142.976 54.8516 146.397 48.0864L146.416 48.0502L146.435 48.0143C147.183 46.5926 148.001 45.1437 148.886 43.6678L148.947 43.5658L149.013 43.4668C149.873 42.1771 150.837 40.9854 151.933 39.9991L151.949 39.9847L151.965 39.9706C156.165 36.2548 160.82 33.8141 165.915 32.9987C168.42 32.5572 170.939 32.556 173.444 32.9952C174.226 33.1143 175.036 33.2706 175.764 33.4973C176.136 33.6129 176.634 33.7914 177.15 34.0728C177.583 34.3092 178.535 34.8846 179.242 36.016C179.943 37.1369 180.048 38.2334 180.072 38.7334C180.1 39.3218 180.043 39.8487 179.985 40.2335C179.867 41.0091 179.643 41.8258 179.402 42.5913L179.39 42.6291L177.628 47.9135L177.546 48.1047C177.209 48.8927 176.561 50.0004 175.33 50.8213C174.137 51.6162 172.824 51.8595 171.641 51.7564C171.206 51.7328 170.781 51.6671 170.37 51.5644L170.165 51.513C169.407 51.4532 168.498 51.5954 167.355 52.1562C167.345 52.1619 167.333 52.169 167.317 52.1777C167.238 52.2225 167.121 52.2895 166.961 52.3821C166.643 52.5663 166.19 52.8313 165.597 53.1799C165.169 53.432 164.769 53.8004 164.4 54.3958C161.698 58.9802 160.339 63.6035 160.221 68.331C160.955 67.9345 161.753 67.7143 162.552 67.6589C167.284 67.1261 170.311 66.8034 171.469 66.7163C173.065 66.5596 174.864 66.4877 176.843 66.4877C177.299 66.4877 177.77 66.5478 178.128 66.6048C178.175 66.0135 178.227 65.4206 178.285 64.8262C178.558 61.6208 179.552 58.1611 181.069 54.5214L181.094 54.4599L181.122 54.3992C182.473 51.3837 184.648 49.0086 187.517 47.3693L187.523 47.3657L187.529 47.3621C190.574 45.6339 193.766 44.446 197.091 43.8469C198.903 43.5099 200.74 43.5586 202.542 44.039L202.832 44.1164L203.11 44.2278C203.212 44.2687 203.502 44.3697 204.064 44.526C204.612 44.6782 205.266 44.8764 205.883 45.139C209.658 46.3692 212.744 48.6072 215.099 51.6929C215.324 49.5295 215.878 47.4136 216.74 45.3586L216.743 45.3513L216.746 45.3441C217.811 42.8252 219.406 40.6286 221.643 39.0227C223.876 37.4195 226.46 36.6124 229.181 36.4152C232.896 36.1257 236.412 36.9762 239.57 38.9496L239.611 38.9751L239.651 39.0015C241.839 40.4282 243.684 42.2767 244.864 44.6354C245.675 46.2583 246.336 47.7236 246.783 48.9769L246.806 49.0399L246.827 49.1034C248.1 52.9951 249.05 56.1285 249.651 58.4562L249.656 58.4745L249.66 58.4929C249.833 59.1823 249.99 59.8694 250.131 60.5541C250.158 60.4313 250.188 60.3005 250.219 60.1621C250.403 59.3431 250.669 58.188 251.016 56.7038C251.047 56.4408 251.085 56.223 251.109 56.0915C251.172 55.7384 251.256 55.3389 251.352 54.9156C251.527 54.1485 251.637 53.6418 251.693 53.3599L251.698 53.3352L251.704 53.3105C251.852 52.6047 251.998 51.9699 252.141 51.447C252.211 51.1882 252.297 50.8962 252.4 50.6075C252.415 50.566 252.436 50.5066 252.465 50.433C252.566 50.039 252.686 49.6532 252.821 49.2769C253.09 47.5923 254.093 46.5115 254.481 46.1237L254.797 45.8081C255.315 45.2896 255.826 45.0101 256.013 44.9107C256.258 44.7813 256.467 44.6957 256.593 44.6473C256.845 44.5503 257.065 44.4875 257.187 44.4541C257.448 44.3829 257.715 44.3259 257.93 44.2829C258.497 44.1694 259.396 44.0362 260.407 44.1758C260.415 44.1762 260.424 44.1766 260.434 44.177C260.55 44.1818 260.738 44.1858 261.015 44.1858C261.358 44.1858 262.411 44.133 264.388 43.9922C267.442 43.7034 270.125 43.6094 272.339 43.7798C272.575 43.7973 272.738 43.8245 272.743 43.8253C272.85 43.8413 272.944 43.8585 273.008 43.8704C273.14 43.8952 273.285 43.9252 273.424 43.9549C273.708 44.0158 274.089 44.1017 274.552 44.2087L277.099 44.7965L278.07 47.2237C278.285 47.7594 278.458 48.2026 278.583 48.5347C278.643 48.695 278.708 48.8718 278.763 49.0379C278.789 49.1159 278.832 49.2465 278.873 49.3988C278.879 49.4189 278.885 49.4428 278.892 49.4702C280.36 54.2775 281.306 57.4972 281.644 58.9101C281.924 59.9773 282.215 61.5462 282.523 63.5069C282.527 62.7598 282.529 62.0187 282.529 61.2836C282.529 60.7233 282.466 58.9654 282.324 55.8299L282.323 55.8205L282.323 55.811C282.257 54.2233 282.25 52.2753 282.74 50.6921C283.032 49.6868 283.59 48.5295 284.637 47.5631C285.77 46.5179 287.122 46.0215 288.399 45.8938C289.057 45.828 289.579 45.7659 289.978 45.7088L290.33 45.6586H290.685C292.007 45.6586 293.715 45.5683 295.84 45.3703C299.331 44.9622 302.891 45.1395 306.498 45.8609L306.615 45.8842L306.73 45.9131C307.926 46.212 309.023 46.7322 310.002 47.4315L310.092 47.4962L310.18 47.5649C311.479 48.5829 312.652 49.6887 313.683 50.8849C313.888 50.0932 314.266 49.2437 314.934 48.4546C316.205 46.9519 317.877 46.4275 319.166 46.3103L319.288 46.2992L319.411 46.2941C321.068 46.225 323.222 46.1209 325.878 45.9811L326.009 45.9742H326.141C327.558 45.9742 329.121 46.4625 330.36 47.7016C331.301 48.642 331.902 49.8449 332.09 51.1613C332.166 51.6938 332.193 52.218 332.193 52.7099V54.2957C332.27 55.0979 332.336 56.2208 332.398 57.585C332.466 59.0792 332.505 60.3131 332.508 61.2528C332.643 63.8285 332.719 65.6872 332.719 66.7012C332.719 67.5149 332.753 69.5957 332.823 73.0152C332.891 76.2936 332.926 78.8714 332.929 80.7318C332.994 81.5097 333.098 83.1538 333.242 85.6004C335.484 85.7146 336.969 85.802 337.615 85.8622C338.389 85.9203 339.547 85.9693 341.133 86.0031C342.794 86.0384 343.807 86.0545 344.235 86.0545H344.427L344.543 86.0634C344.489 85.6577 344.445 85.2506 344.411 84.8423L344.394 84.635V84.4271C344.394 84.2901 344.364 83.7975 344.228 82.7735C344.098 81.8003 343.995 80.8509 343.976 80.0543C343.545 75.0972 343.589 70.0193 344.099 64.8261C344.372 61.6207 345.366 58.161 346.883 54.5214L346.908 54.4599L346.936 54.3992C348.287 51.3836 350.462 49.0086 353.33 47.3693L353.337 47.3657L353.343 47.3621C356.388 45.6339 359.58 44.446 362.905 43.8469C364.717 43.5099 366.554 43.5586 368.356 44.039L368.646 44.1164L368.924 44.2278C369.026 44.2687 369.316 44.3697 369.878 44.526C370.426 44.6781 371.08 44.8764 371.697 45.139C376.517 46.7096 380.213 49.9233 382.7 54.4465C384.294 57.3184 385.555 60.4029 386.494 63.6855C387.323 66.5141 387.742 69.3999 387.742 72.3293V77.0113C387.815 80.6477 387.503 84.5158 386.835 88.6008L386.833 88.6081L386.832 88.6154C386.217 92.3069 384.783 95.8409 382.651 99.2025L382.621 99.2508L382.589 99.2983C380.959 101.744 378.774 103.62 376.106 104.852L376.063 104.871L376.02 104.89C372.719 106.34 369.372 107.161 366.088 106.995H364.493C360.181 107.083 356.283 105.311 352.897 102.446L352.844 102.401L352.793 102.355C351.901 101.557 351.081 100.697 350.335 99.7758C350.092 100.602 349.663 101.444 348.961 102.204C347.776 103.488 346.313 103.993 345.207 104.184C343.736 104.451 342.305 104.666 341.193 104.68C339.256 104.752 337.198 104.751 335.021 104.678L335.005 104.677L334.988 104.677C333.13 104.602 331.081 104.456 328.848 104.24C327.102 104.094 325.446 103.91 323.882 103.687C320.457 103.229 317.936 101.162 316.448 98.3116L316.428 98.2734L316.409 98.2349C316.29 97.9967 316.177 97.7552 316.071 97.5108C315.799 97.9499 315.519 98.3818 315.231 98.8063L315.207 98.8415L315.182 98.8763C313.244 101.631 310.579 103.635 307.197 104.359L307.188 104.361L304.916 104.839L304.648 104.866C299.53 105.378 294.016 105.594 288.115 105.522C287.439 105.517 286.827 105.391 286.455 105.302C285.637 105.131 284.779 104.782 283.995 104.178C283.671 104.319 283.323 104.439 282.951 104.531C279.89 105.297 277.717 105.849 276.413 106.191C275.418 106.463 273.763 106.644 272.078 105.708C270.352 104.75 269.639 103.198 269.357 102.212L269.334 102.131L268.841 100.16L268.807 99.9481C268.283 96.69 267.633 93.2443 266.855 89.6097C266.025 89.7331 265.287 89.8421 264.642 89.9367C263.919 93.4908 263.527 95.5112 263.432 96.1279L263.415 96.2385L263.393 96.3482C263.369 96.4695 263.317 96.7959 263.252 97.4164C263.17 98.1939 263.065 98.9423 262.931 99.6554C262.814 100.278 262.676 100.886 262.514 101.477L262.149 103.303L261.079 104.373C260.617 104.835 259.706 105.668 258.388 106.107L257.885 106.275L257.359 106.333C256.664 106.411 255.684 106.502 254.446 106.609C253.856 106.659 253.416 106.703 253.111 106.738C252.988 106.752 252.901 106.764 252.846 106.772L252.517 106.854L252.051 106.881C251.321 106.924 250.505 106.936 249.719 106.84L249.714 106.839C249.23 106.78 247.468 106.566 246.065 105.162C245.262 104.359 244.895 103.483 244.729 103.018C244.543 102.494 244.443 102 244.384 101.62C244.266 100.859 244.232 100.038 244.232 99.2599V99.1924L244.234 99.1249C244.288 97.1363 244.547 94.7975 244.984 92.1428C244.493 92.48 243.977 92.7894 243.436 93.0704C241.224 94.2236 238.826 94.9134 236.295 95.1845L236.19 95.1957L235.924 95.2129V98.8391C235.924 99.6166 235.837 100.705 235.372 101.823C235.353 101.873 235.336 101.916 235.32 101.952C235.175 102.302 235.018 102.57 234.92 102.725C234.726 103.036 234.531 103.278 234.423 103.408C234.191 103.686 233.934 103.951 233.723 104.163L232.258 105.628H229.75L229.628 105.622C226.79 105.483 224.543 105.379 222.883 105.31C221.687 105.279 220.013 104.874 218.719 103.394C217.539 102.046 217.317 100.522 217.299 99.6035C217.283 99.215 217.269 98.8544 217.257 98.5239C217.12 98.7509 216.98 98.9771 216.837 99.2025L216.807 99.2508L216.775 99.2983C215.145 101.744 212.96 103.62 210.292 104.852L210.249 104.871L210.206 104.89C206.905 106.34 203.558 107.161 200.274 106.995H198.68C194.367 107.083 190.469 105.311 187.083 102.446L187.03 102.401L186.979 102.355C185.263 100.82 183.814 99.0532 182.642 97.0697L182.635 97.0576L182.628 97.0454C182.114 96.1644 181.645 95.2749 181.222 94.3773ZM198.623 101.995H200.412C202.726 102.135 205.321 101.574 208.196 100.312C210.02 99.4703 211.493 98.208 212.615 96.5248C214.438 93.6494 215.595 90.7389 216.086 87.7934C216.198 87.1084 216.299 86.4323 216.389 85.765C216.806 82.6747 216.985 79.7741 216.928 77.0632V72.3293C216.928 70.6974 216.773 69.0811 216.463 67.4802C216.462 67.476 216.461 67.4718 216.46 67.4676C216.305 66.6647 216.11 65.8658 215.876 65.0707C215.67 64.3505 215.448 63.643 215.208 62.948C214.469 60.8003 213.569 58.7728 212.51 56.8653C210.546 53.2885 207.741 50.9391 204.094 49.817C203.813 49.6767 203.357 49.5189 202.726 49.3436C202.095 49.1683 201.604 49.0105 201.253 48.8702C200.201 48.5897 199.114 48.5546 197.992 48.765C195.257 49.256 192.592 50.2378 189.997 51.7106C188.033 52.8327 186.596 54.4106 185.684 56.4445C184.281 59.8108 183.475 62.7563 183.265 65.2811C183.16 66.3368 183.077 67.3861 183.014 68.4292C182.924 69.9174 182.875 71.3928 182.869 72.8553C182.869 72.8927 182.869 72.9301 182.868 72.9676C182.862 75.2044 182.952 77.4112 183.141 79.588C183.147 79.6581 183.153 79.7283 183.159 79.7984C183.159 79.8352 183.16 79.8736 183.161 79.9136C183.17 80.4067 183.24 81.1397 183.37 82.1127C183.438 82.6209 183.489 83.0636 183.524 83.4408C183.561 83.8445 183.58 84.1733 183.58 84.4271C183.861 87.7934 184.983 91.1597 186.946 94.526C187.858 96.0689 188.98 97.4365 190.313 98.6287C193.048 100.943 195.818 102.065 198.623 101.995ZM194.942 59.0744C194.31 59.4251 193.854 59.916 193.574 60.5472C192.522 63.4927 191.961 65.8772 191.891 67.7006C191.891 67.911 191.821 69.4188 191.68 72.2241V75.6956C192.031 79.623 192.312 82.6036 192.522 84.6375C192.802 86.4609 193.574 88.3544 194.836 90.3181C195.467 91.2298 196.169 91.9312 196.94 92.4221C197.431 92.7026 197.782 92.8779 197.992 92.9481C200.517 93.3689 202.551 93.1935 204.094 92.4221C204.725 92.0714 205.146 91.6857 205.356 91.2649C206.408 89.5116 207.039 88.0739 207.25 86.9518C207.741 83.4452 207.986 81.2711 207.986 80.4295C208.056 77.8347 208.126 75.6606 208.196 73.9073C208.337 70.05 207.18 65.8071 204.725 61.1784C203.953 59.7056 202.866 58.7588 201.464 58.338C199.36 57.6367 197.536 57.7068 195.993 58.5484C195.853 58.6185 195.66 58.7062 195.415 58.8114C195.169 58.9166 195.012 59.0043 194.942 59.0744ZM203.2 73.7168C203.297 70.9977 202.49 67.6357 200.308 63.5209L200.302 63.5096L200.296 63.4984C200.155 63.2291 200.056 63.1419 200.047 63.1341M203.2 73.7168C203.129 75.4975 203.058 77.6917 202.988 80.2945L202.986 80.362V80.4288C202.986 80.4241 202.986 80.4592 202.981 80.5468C202.977 80.634 202.969 80.7519 202.956 80.905C202.931 81.2129 202.891 81.6179 202.833 82.1303C202.721 83.123 202.551 84.4411 202.32 86.098C202.254 86.3651 202.028 87.0018 201.419 88.0888C201.043 88.1662 200.432 88.2161 199.502 88.1124C199.382 88.0123 199.207 87.8362 198.992 87.5351C198.08 86.0993 197.643 84.9211 197.481 83.9812C197.28 82.0249 197.013 79.1928 196.68 75.4727V72.349C196.796 70.0356 196.872 68.4635 196.888 67.8776C196.927 66.9222 197.221 65.3863 197.965 63.1482C198.055 63.106 198.144 63.0634 198.23 63.0205L198.309 62.9806L198.388 62.9379C198.388 62.9375 198.389 62.9369 198.391 62.936C198.431 62.9116 198.766 62.7093 199.883 63.0814L199.954 63.1054L200.027 63.1271C200.036 63.1299 200.043 63.1326 200.047 63.1341M220.177 62.0384C220.198 62.6021 220.222 63.1843 220.247 63.7851C220.247 63.7972 220.248 63.8093 220.248 63.8214C220.294 64.9132 220.346 66.066 220.404 67.2798C220.52 69.5585 220.604 71.2417 220.656 72.3293C220.698 73.2166 220.719 73.7076 220.719 73.8021C220.719 74.8619 220.736 75.9217 220.769 76.9815C220.77 77.0087 220.771 77.036 220.772 77.0632C220.865 79.9766 221.083 82.89 221.427 85.8035C221.501 86.4317 221.581 87.06 221.666 87.6882C222.157 91.2649 222.332 94.1403 222.192 96.3144C222.192 96.6651 222.227 97.717 222.297 99.4703C222.297 100.031 222.543 100.312 223.034 100.312C224.717 100.382 226.996 100.487 229.872 100.628H230.187C230.538 100.277 230.713 100.066 230.713 99.9963C230.853 99.7158 230.924 99.3301 230.924 98.8391V92.0013C230.924 91.3701 231.029 90.9669 231.239 90.7915C231.45 90.6162 231.87 90.4935 232.502 90.4233L235.763 90.2129C237.726 90.0025 239.515 89.4766 241.128 88.635C243.021 87.6531 244.354 86.2154 245.125 84.3219C245.897 82.4984 246.247 80.7802 246.177 79.1672V73.8021H246.072V70.2254C246.082 69.7537 246.082 69.2793 246.073 68.8021C246.015 65.8736 245.594 62.8415 244.81 59.7056C244.249 57.5315 243.337 54.5159 242.075 50.6586C241.724 49.6767 241.163 48.4144 240.391 46.8715C239.69 45.4688 238.533 44.2415 236.92 43.1895C234.676 41.7869 232.221 41.1908 229.556 41.4012C225.629 41.6817 222.894 43.6454 221.351 47.2923C220.439 49.4664 219.983 51.6755 219.983 53.9197C219.983 55.9648 220.048 58.671 220.177 62.0384ZM229.872 80.8503C229.872 81.0607 229.977 81.2536 230.187 81.4289C230.398 81.6043 230.643 81.6919 230.924 81.6919C233.378 81.4815 234.956 81.3413 235.657 81.2711C236.709 81.0607 237.271 80.3594 237.341 79.1672V78.3256C237.271 72.715 237.235 69.8396 237.235 69.6994C237.235 67.385 236.955 65.0356 236.394 62.6511C235.99 61.1712 235.167 58.3363 233.925 54.1464C233.892 54.0367 233.859 53.9261 233.826 53.8145C233.807 53.7507 233.788 53.6866 233.769 53.6221C233.767 53.6161 233.766 53.6101 233.764 53.6041C233.701 53.3942 233.625 53.181 233.537 52.9648C233.49 52.8492 233.439 52.7326 233.385 52.6152C233.202 52.2187 232.977 51.812 232.712 51.395C232.291 50.6936 231.625 50.343 230.713 50.343C230.152 50.2729 229.766 50.4833 229.556 50.9742C229.155 51.7761 228.945 52.6735 228.926 53.6664C228.925 53.7124 228.925 53.7586 228.925 53.8049C228.925 53.8081 228.925 53.8113 228.925 53.8145V60.3368C229.065 64.2642 229.135 66.3681 229.135 66.6486C229.346 68.963 229.521 72.5046 229.661 77.2736C229.661 77.9048 229.731 79.097 229.872 80.8503ZM250.705 88.7402C249.794 93.1585 249.303 96.665 249.232 99.2599C249.232 100.592 249.355 101.381 249.601 101.627C249.846 101.872 250.565 101.96 251.757 101.89C252.038 101.82 252.792 101.732 254.019 101.627C255.246 101.522 256.176 101.434 256.807 101.364C257.017 101.294 257.263 101.118 257.543 100.838L257.648 100.312C257.789 99.821 257.911 99.295 258.016 98.7339C258.122 98.1729 258.209 97.5592 258.279 96.893C258.35 96.2267 258.42 95.7183 258.49 95.3676C258.63 94.4559 259.226 91.4403 260.278 86.3206C260.348 85.7596 260.664 85.444 261.225 85.3738C262.277 85.2336 264.907 84.8479 269.115 84.2167H269.43C270.272 84.1465 270.798 84.4621 271.008 85.1634C271.149 85.5842 271.254 86.0752 271.324 86.6362C272.306 91.0545 273.112 95.2273 273.744 99.1547L274.164 100.838C274.305 101.329 274.62 101.504 275.111 101.364C276.412 101.021 278.549 100.479 281.522 99.7349C281.594 99.717 281.666 99.6989 281.739 99.6807C282.3 99.5405 282.685 99.1197 282.896 98.4184C283.106 97.7872 283.141 96.9105 283.001 95.7884C282.99 95.7242 282.979 95.654 282.966 95.578C282.956 95.5168 282.945 95.4518 282.934 95.3829C282.84 94.8053 282.704 93.9585 282.527 92.8427C282.411 92.1155 282.278 91.274 282.127 90.3181C282.1 90.1459 282.072 89.97 282.044 89.7903C281.872 88.6959 281.678 87.4638 281.464 86.094C281.416 85.7906 281.367 85.4804 281.318 85.1634C280.687 80.7451 280.02 76.958 279.319 73.8021C278.758 71.4176 278.267 68.8227 277.846 66.0175C277.425 63.142 277.075 61.1784 276.794 60.1264C276.514 58.9341 275.602 55.8133 274.059 50.7638C274.059 50.6936 273.849 50.1326 273.428 49.0806C272.516 48.8702 272.025 48.765 271.955 48.765C270.132 48.6248 267.747 48.6949 264.802 48.9754C262.838 49.1157 261.576 49.1858 261.015 49.1858C260.383 49.1858 259.963 49.1683 259.752 49.1332C259.542 49.0982 259.261 49.1157 258.911 49.1858C258.56 49.256 258.367 49.3086 258.332 49.3436L258.016 49.6592C257.841 49.8345 257.753 49.9923 257.753 50.1326C257.753 50.2729 257.683 50.5359 257.543 50.9216C257.403 51.3073 257.298 51.6755 257.227 52.0262C257.087 52.2366 256.877 53.008 256.596 54.3405C256.526 54.6912 256.403 55.2522 256.228 56.0237C256.053 56.7951 255.965 57.286 255.965 57.4964C255.194 60.7926 254.808 62.5109 254.808 62.6511C254.317 65.0356 254.036 67.385 253.966 69.6994C253.896 71.2423 253.721 72.8202 253.44 74.4333C252.669 78.4308 251.757 83.1997 250.705 88.7402ZM262.698 73.9073C262.628 74.0475 262.558 74.5385 262.487 75.3801C262.487 75.4502 262.558 75.5554 262.698 75.6956C262.838 75.8359 262.943 75.906 263.013 75.906C263.715 75.9762 264.135 75.9762 264.276 75.906C264.626 75.871 265.187 75.7921 265.959 75.6693C266.024 75.659 266.09 75.6484 266.158 75.6374C266.543 75.5753 266.977 75.5032 267.458 75.421C267.474 75.4184 267.489 75.4157 267.505 75.4131C267.51 75.4121 267.516 75.4112 267.521 75.4103C267.945 75.3377 268.407 75.2575 268.904 75.1697C269.045 75.1697 269.15 75.1346 269.22 75.0645C269.43 74.8541 269.536 74.7138 269.536 74.6437C269.536 74.5735 269.571 74.1527 269.641 73.3813C269.501 71.628 269.43 70.6812 269.43 70.541C269.168 68.673 268.944 67.0807 268.759 65.764C268.547 64.2629 268.385 63.1201 268.273 62.3355C268.266 62.2521 268.256 62.1641 268.244 62.0717C268.244 62.0704 268.244 62.0691 268.244 62.0679C268.241 62.0425 268.237 62.0169 268.234 61.9909C268.184 61.6257 268.105 61.194 267.995 60.6956C267.939 60.4441 267.876 60.1757 267.805 59.8903C267.773 59.762 267.74 59.6303 267.705 59.4952C267.652 59.2925 267.596 59.0821 267.537 58.864C267.467 58.4432 267.186 58.1978 266.695 58.1276C266.134 58.0575 265.643 58.0575 265.223 58.1276C265.012 58.1276 264.802 58.303 264.591 58.6536C264.463 58.7818 264.394 59.0272 264.383 59.3897C264.381 59.4238 264.381 59.459 264.381 59.4952C264.372 59.5749 264.363 59.6539 264.354 59.7322C264.247 60.6583 264.155 61.4836 264.077 62.2081C264.057 62.3855 264.039 62.5568 264.022 62.7221C264.013 62.7981 264.006 62.8728 263.998 62.9463C263.832 64.5278 263.75 65.5165 263.75 65.9123C263.747 65.9418 263.745 65.9715 263.743 66.0014C263.643 67.252 263.448 68.8869 263.156 70.906C263.156 70.9067 263.156 70.9074 263.156 70.9081C263.152 70.9368 263.148 70.9655 263.144 70.9943C263.141 71.0115 263.139 71.0287 263.136 71.046C263.097 71.316 263.056 71.5928 263.013 71.8764C262.957 72.2487 262.899 72.6326 262.837 73.0281C262.792 73.315 262.746 73.6081 262.698 73.9073ZM287.424 71.0669C287.283 76.397 287.073 80.0438 286.793 82.0075C286.793 82.0776 286.722 82.7789 286.582 84.1115C286.547 84.7347 286.515 85.3115 286.485 85.8421C286.339 88.4759 286.267 89.9679 286.267 90.3181C286.196 90.8792 286.144 91.7558 286.109 92.9481C286.079 93.9463 286.062 94.7232 286.058 95.279C286.057 95.3228 286.057 95.3653 286.057 95.4064C286.056 95.4666 286.056 95.5238 286.056 95.578C285.988 96.6682 286.185 97.99 286.646 99.5434C286.66 99.589 286.673 99.6348 286.687 99.6807C286.688 99.6813 286.688 99.6819 286.688 99.6824C286.824 100.091 287.093 100.333 287.494 100.411C287.506 100.413 287.517 100.415 287.529 100.417C287.809 100.487 288.02 100.522 288.16 100.522C293.911 100.592 299.241 100.382 304.15 99.8911L306.149 99.4703C308.113 99.0495 309.761 97.8924 311.093 95.9988C312.403 94.0683 313.544 91.9345 314.515 89.5973C314.531 89.5571 314.548 89.5169 314.565 89.4766C315.056 88.2142 315.301 87.057 315.301 86.005C315.296 85.8068 315.292 85.6128 315.287 85.4231C315.287 85.4194 315.287 85.4158 315.287 85.4121C315.221 82.7896 315.156 80.9886 315.091 80.0088C314.938 78.5226 314.589 77.1503 314.043 75.8918C313.585 74.8343 312.987 73.8572 312.25 72.9605L311.304 71.6981C311.865 70.7163 312.145 70.1903 312.145 70.1202C312.776 69.0682 313.162 68.0863 313.302 67.1746C314.354 60.7926 312.285 55.5678 307.096 51.5002C306.605 51.1495 306.079 50.904 305.518 50.7638C302.362 50.1326 299.311 49.9923 296.366 50.343C294.121 50.5534 292.228 50.6586 290.685 50.6586C290.194 50.7287 289.598 50.7988 288.896 50.869C288.195 50.9391 287.739 51.3599 287.529 52.1314C287.318 52.7625 287.248 53.9197 287.319 55.6029C287.459 58.6887 287.529 60.5822 287.529 61.2836C287.529 64.4395 287.494 67.7006 287.424 71.0669ZM306.359 87.1622C306.71 85.3388 306.605 82.9894 306.044 80.1139C305.693 78.1502 304.431 77.0983 302.257 76.958C301.836 76.8879 301.45 76.8879 301.099 76.958C300.258 77.0281 298.89 77.1684 296.997 77.3788C296.436 77.4489 296.155 77.7645 296.155 78.3256V85.1634H296.05V91.0545C296.05 91.335 296.085 91.826 296.155 92.5273C296.155 93.0182 296.401 93.2987 296.892 93.3689C300.679 93.6494 303.484 92.387 305.307 89.5817C305.868 88.8103 306.219 88.0038 306.359 87.1622ZM301.155 86.7953L301.187 86.7469L301.264 86.6409C301.348 86.5255 301.388 86.4465 301.406 86.4047C301.423 86.3647 301.426 86.3455 301.427 86.3402L301.438 86.2789L301.449 86.218C301.608 85.3927 301.633 84.0251 301.296 81.9596C301.25 81.9636 301.204 81.9678 301.155 81.9722V86.7953ZM296.366 67.385C296.436 67.5954 296.541 67.7707 296.681 67.911C296.821 68.0513 296.997 68.1214 297.207 68.1214C299.031 68.0513 300.118 67.9811 300.468 67.911C301.731 67.7707 302.783 67.3149 303.624 66.5434C304.536 65.772 304.922 64.7901 304.781 63.5979C304.501 61.7745 303.659 60.2666 302.257 59.0744C301.929 58.7468 301.632 58.5416 301.366 58.4588C301.347 58.453 301.328 58.4478 301.31 58.4432C300.562 58.1941 299.842 58.0352 299.149 57.9667C298.623 57.9148 298.113 57.9148 297.618 57.9667C297.48 57.9812 297.343 57.9998 297.207 58.0224C296.716 58.0926 296.471 58.3731 296.471 58.864C296.436 59.0394 296.401 59.469 296.366 60.153C296.33 60.8367 296.295 61.7746 296.26 62.9667H296.366V67.385ZM319.021 74.8832C319.027 75.1503 319.034 75.4211 319.04 75.6956C319.073 77.1306 319.105 78.4301 319.134 79.594C319.135 79.6426 319.137 79.6909 319.138 79.7389C319.201 82.1999 319.256 84.0431 319.303 85.2686C319.311 85.4834 319.319 85.6969 319.327 85.9092C319.329 85.9411 319.33 85.9731 319.331 86.005C319.392 87.5002 319.474 88.9328 319.577 90.3027C319.59 90.4843 319.604 90.6647 319.619 90.8441C319.759 92.878 320.18 94.5962 320.881 95.9988C321.723 97.6118 322.95 98.5235 324.563 98.7339C326.036 98.9443 327.614 99.1197 329.297 99.2599C331.471 99.4703 333.435 99.6106 335.188 99.6807C337.292 99.7509 339.256 99.7509 341.079 99.6807C341.71 99.6807 342.797 99.5405 344.34 99.2599C345.182 99.1197 345.603 98.6638 345.603 97.8924V92.2117C345.603 91.5104 345.147 91.1246 344.235 91.0545C343.744 91.0545 342.675 91.037 341.026 91.0019C339.378 90.9669 338.098 90.9143 337.187 90.8441C336.485 90.774 333.926 90.6337 329.507 90.4233C329.437 90.4233 329.367 90.3883 329.297 90.3181H329.192C328.701 90.248 328.455 89.9675 328.455 89.4766C328.175 84.4972 327.999 81.6569 327.929 80.9555C327.929 79.1321 327.894 76.5197 327.824 73.1183C327.754 69.7169 327.719 67.5779 327.719 66.7012C327.719 65.8246 327.649 64.0538 327.508 61.3888C327.508 60.5472 327.473 59.3549 327.403 57.812C327.333 56.2691 327.263 55.1821 327.193 54.5509V52.7099C327.193 52.3943 327.175 52.1138 327.14 51.8684C327.105 51.6229 327 51.4125 326.825 51.2372C326.649 51.0618 326.421 50.9742 326.141 50.9742C323.476 51.1144 321.302 51.2196 319.619 51.2898C318.847 51.3599 318.462 51.8158 318.462 52.6573C318.391 52.8677 318.356 54.1652 318.356 56.5497C318.426 57.3912 318.462 57.8822 318.462 58.0224C318.672 62.581 318.777 64.9304 318.777 65.0707C318.843 67.4434 318.924 70.7142 319.021 74.8832ZM364.437 101.995H366.226C368.54 102.135 371.135 101.574 374.01 100.312C375.834 99.4703 377.307 98.208 378.429 96.5248C380.252 93.6494 381.409 90.7389 381.9 87.7934C382.531 83.9361 382.812 80.3594 382.742 77.0632V72.3293C382.742 69.8747 382.391 67.4552 381.69 65.0707C380.848 62.1251 379.726 59.39 378.323 56.8653C376.36 53.2885 373.555 50.9391 369.908 49.817C369.627 49.6767 369.171 49.5189 368.54 49.3436C367.909 49.1683 367.418 49.0105 367.067 48.8702C366.015 48.5897 364.928 48.5546 363.806 48.765C361.071 49.256 358.406 50.2378 355.811 51.7106C353.847 52.8327 352.41 54.4106 351.498 56.4445C350.095 59.8108 349.289 62.7563 349.079 65.2811C348.588 70.2605 348.553 75.0995 348.973 79.7984C348.973 80.2893 349.043 81.0607 349.184 82.1127C349.324 83.1647 349.394 83.9361 349.394 84.4271C349.675 87.7934 350.797 91.1597 352.76 94.526C353.672 96.0689 354.794 97.4365 356.127 98.6287C358.862 100.943 361.632 102.065 364.437 101.995ZM360.755 59.0744C360.124 59.4251 359.668 59.916 359.388 60.5472C358.336 63.4927 357.775 65.8772 357.705 67.7006C357.705 67.911 357.635 69.4188 357.494 72.2241V75.6956C357.845 79.623 358.126 82.6036 358.336 84.6375C358.616 86.4609 359.388 88.3544 360.65 90.3181C361.281 91.2298 361.983 91.9312 362.754 92.4221C363.245 92.7026 363.596 92.8779 363.806 92.9481C366.331 93.3689 368.365 93.1935 369.908 92.4221C370.539 92.0714 370.96 91.6857 371.17 91.2649C372.222 89.5116 372.853 88.0739 373.064 86.9518C373.555 83.4452 373.8 81.2711 373.8 80.4295C373.87 77.8347 373.94 75.6606 374.01 73.9073C374.151 70.05 372.993 65.8071 370.539 61.1784C369.767 59.7056 368.68 58.7588 367.278 58.338C365.174 57.6367 363.35 57.7068 361.807 58.5484C361.667 58.6185 361.474 58.7062 361.229 58.8114C360.983 58.9166 360.826 59.0043 360.755 59.0744ZM369.014 73.7195C369.111 70.9999 368.304 67.637 366.122 63.5209L366.116 63.5096L366.11 63.4984C365.969 63.2291 365.87 63.1419 365.861 63.1341M369.014 73.7195C368.943 75.4997 368.872 77.693 368.802 80.2945L368.8 80.362V80.4284C368.8 80.4283 368.8 80.4643 368.795 80.5468C368.791 80.6339 368.783 80.7518 368.77 80.9049C368.745 81.2128 368.705 81.6179 368.647 82.1303C368.535 83.1229 368.365 84.4411 368.134 86.0979C368.068 86.365 367.842 87.0017 367.233 88.0888C366.857 88.1662 366.246 88.2161 365.316 88.1124C365.196 88.0123 365.021 87.8361 364.805 87.5349C363.894 86.0993 363.457 84.9211 363.295 83.9813C363.094 82.0249 362.827 79.1928 362.494 75.4726V72.3489C362.61 70.0354 362.686 68.4634 362.702 67.8776C362.741 66.9222 363.035 65.3863 363.779 63.1482C363.869 63.106 363.958 63.0634 364.044 63.0205L364.123 62.9806L364.202 62.9379C364.202 62.9375 364.203 62.9369 364.205 62.936C364.245 62.9116 364.58 62.7093 365.697 63.0814L365.768 63.1054L365.841 63.1271C365.85 63.1299 365.857 63.1326 365.861 63.1341M170.847 47.8709L171.155 46.6372L170.847 47.8709Z" fill="white"/>
<path fill-rule="evenodd" clip-rule="evenodd" d="M109.624 54.4339C113.893 55.3619 119.09 57.3109 125.216 60.2807C123.36 67.891 121.225 73.3666 118.812 76.7077C115.193 81.7193 108.51 83.3898 105.169 83.9466C103.499 84.2251 97.2343 84.2251 90.8654 84.2251C84.4965 84.2251 78.0232 84.2251 75.935 84.5035C71.7587 85.0603 67.5824 87.0093 68.1392 91.1856C68.5104 93.9698 69.8097 99.5383 72.0371 107.891C70.181 104.364 68.6032 101.58 67.3039 99.5383C65.355 96.4756 62.0139 90.0719 68.1392 84.2251C71.5423 80.9767 80.7892 80.6502 89.7685 80.3332C96.9514 80.0796 103.963 79.8321 107.675 78.0998C113.244 75.5012 116.677 71.6032 117.977 66.406C117.049 65.6636 116.028 64.6427 114.914 63.3434C113.8 62.0441 113.058 59.9095 112.687 56.9397C107.49 56.1972 102.849 55.0835 98.7657 53.5986L98.5206 53.5095C92.4557 51.3044 85.6353 48.8247 82.3387 45.8028C78.9977 42.7401 70.0882 39.6775 65.9118 42.7401C63.1276 44.7819 62.8492 50.7216 65.0766 60.5592C60.993 61.116 56.5383 62.4153 51.7123 64.4571C46.8863 66.4988 43.5452 70.1183 41.6891 75.3155C43.5718 73.9437 45.1495 72.9228 46.4223 72.2529C47.6951 71.583 49.7368 70.8406 52.5476 70.0255C48.8353 73.5522 46.3295 77.6357 45.0302 82.2761C44.2672 85.0008 44.2403 87.7255 44.9492 90.4502C45.2815 91.7273 46.1438 93.643 47.536 96.1972C47.5914 94.236 47.6842 92.7511 47.8144 91.7425C47.9445 90.7338 48.223 89.3417 48.6497 87.5661C50.6914 93.1346 53.3828 98.6102 56.7239 103.993C60.065 109.376 61.0858 118.378 59.7865 131C56.2599 125.432 52.0835 120.977 47.2575 117.636C44.847 115.967 42.0351 114.391 39.0582 112.722C33.0956 109.38 26.4714 105.666 21.0858 100.095C15.703 94.5267 13.0116 87.8445 13.0116 80.0487L9.39211 85.8956C7.53596 76.6149 7.53596 69.2831 9.39211 63.9002C11.2483 58.5174 13.7541 53.0418 16.9095 47.4733L8.83527 51.9281C9.76334 48.7726 11.8979 45.3387 15.239 41.6264C20.2506 36.058 25.2622 32.9954 41.9675 25.7564C53.1044 20.9304 62.1067 16.0116 68.9745 11C68.8555 15.4614 68.5771 18.8025 68.1392 21.0232C67.7109 23.1954 66.69 26.4436 65.0766 30.768C72.8724 30.768 84.5661 36.3364 87.9072 39.3991C89.3329 40.7059 90.2516 42.3677 91.1393 43.9733C92.3318 46.1304 93.4684 48.1862 95.703 49.1439C96.6488 49.5492 97.5782 49.9873 98.535 50.4383C101.521 51.8461 104.774 53.3795 109.624 54.4339ZM72.3155 29.3759C70.9541 28.7924 69.562 28.514 68.1392 28.5406L69.8097 24.0858C72.0678 23.1204 74.2952 22.0067 76.4919 20.7448C78.6886 19.4828 80.8232 18.0907 82.8956 16.5684C82.6411 19.079 81.9914 21.3992 80.9466 23.529C79.9018 25.6588 78.3241 28.3502 76.2135 31.6033C74.9763 30.7018 73.677 29.9594 72.3155 29.3759ZM75.6566 52.2065C73.6503 51.7323 71.3301 50.5258 68.6961 48.587C73.3364 47.1021 76.6775 46.7309 78.7193 47.4733C80.761 48.2158 82.5244 49.7935 84.0093 52.2065C80.4472 52.6807 77.6629 52.6807 75.6566 52.2065Z" fill="black"/>
<path fill-rule="evenodd" clip-rule="evenodd" d="M131.03 57.5431L130.073 61.4655C128.177 69.2411 125.86 75.4885 122.865 79.6351C117.981 86.3987 109.45 88.3021 105.991 88.8786C104.693 89.095 102.261 89.1571 99.847 89.1898C97.2422 89.2251 94.0569 89.2251 90.892 89.2251H90.8654C87.6713 89.2251 84.4962 89.2251 81.86 89.2594C79.096 89.2954 77.2823 89.3681 76.5959 89.4596C74.9162 89.6836 73.7448 90.1404 73.1862 90.5431C73.1552 90.5655 73.1286 90.5858 73.1061 90.604C73.4431 93.0502 74.6497 98.2827 76.8683 106.603L67.6125 110.22C65.7852 106.748 64.2797 104.099 63.0856 102.223C62.0108 100.534 60.1742 97.3771 59.7267 93.4989C59.241 89.2899 60.4459 84.6565 64.6868 80.6083C66.284 79.0837 68.2739 78.1564 70.1189 77.545C72.0059 76.9196 74.0927 76.5119 76.1859 76.2259C80.2958 75.6644 85.0591 75.4963 89.4357 75.3419L89.5921 75.3363C93.2255 75.2081 96.6036 75.0868 99.528 74.7956C102.568 74.4929 104.523 74.053 105.561 73.5689C108.848 72.035 110.94 70.0976 112.158 67.7658C111.811 67.3913 111.464 67.0012 111.118 66.5973C109.841 65.1082 109.007 63.2767 108.457 61.3177C104.351 60.5677 100.546 59.5663 97.057 58.2976M97.057 58.2976L96.8121 58.2085L96.7301 58.1787C95.0748 57.5769 93.3032 56.9328 91.5352 56.2487L84.6691 57.1628C80.8836 57.6667 77.39 57.754 74.5065 57.0724C72.6879 56.6426 70.8634 55.8504 69.0495 54.8025C69.266 56.188 69.5639 57.736 69.9531 59.455L71.1579 64.7762L65.7521 65.5133C62.2061 65.9969 58.184 67.1481 53.6605 69.0619C53.5791 69.0963 53.4984 69.1313 53.4182 69.1669L55.9913 73.6505C53.9255 75.613 52.3462 77.7377 51.2143 80.0364L53.344 85.8448C55.261 91.0728 57.7984 96.2431 60.9721 101.356C65.2477 108.245 66.0776 118.715 64.7603 131.512L63.2827 145.865L55.5625 133.675C52.3502 128.603 48.6227 124.662 44.4115 121.747C42.2332 120.239 39.6423 118.781 36.6134 117.083L36.3884 116.957C30.5528 113.687 23.3886 109.671 17.4909 103.57C14.5066 100.483 12.2204 97.0754 10.6416 93.3765L6.97414 99.3008L4.48921 86.8762C2.56145 77.2374 2.38707 68.877 4.66525 62.2703C5.00008 61.2993 5.35437 60.3268 5.72799 59.3529L0.609039 62.1772L4.03844 50.5172C5.25834 46.3696 7.91687 42.2879 11.5225 38.2816C17.3279 31.8312 23.256 28.4155 39.9795 21.1686C50.9085 16.4327 59.5547 11.6842 66.0271 6.96105L74.2438 0.965088L73.9727 11.1333C73.9199 13.1135 73.8356 14.9322 73.7138 16.5734C73.8097 16.519 73.9055 16.4643 74.0013 16.4093C76.0335 15.2418 78.0115 13.9521 79.9356 12.5387L89.005 5.87693L87.8701 17.0727C87.5596 20.1356 86.758 23.0355 85.4356 25.7311C84.7385 27.152 83.8542 28.7485 82.7962 30.5112C86.2699 32.1377 89.4367 34.0183 91.2858 35.7133C93.3235 37.5812 94.5839 39.8661 95.4121 41.3676C95.4472 41.4312 95.4815 41.4934 95.515 41.5541C96.1526 42.7074 96.5416 43.3863 96.956 43.9117C97.3062 44.3556 97.5226 44.4838 97.6726 44.5481C98.7004 44.9886 99.6977 45.4587 100.63 45.8982L100.667 45.9157C103.602 47.2995 106.424 48.6215 110.686 49.548C115.495 50.5933 121.09 52.7235 127.397 55.7817L131.03 57.5431M80.1129 34.7795C78.5931 34.0879 76.9648 33.4275 75.3055 32.8493C73.9899 32.3909 72.6548 31.9842 71.3389 31.6546C70.9503 31.5573 70.5634 31.4667 70.1792 31.3835C69.5046 31.2375 68.8383 31.1142 68.1856 31.0172C67.1037 30.8564 66.0592 30.768 65.0766 30.768C65.4702 29.713 65.8285 28.7221 66.1516 27.7953C66.3917 27.1063 66.6124 26.4528 66.8135 25.8347C67.12 24.8931 67.3812 24.0336 67.5972 23.2562C67.8307 22.4159 68.0114 21.6716 68.1392 21.0232C68.1765 20.8342 68.2126 20.6372 68.2475 20.432C68.3109 20.0599 68.3705 19.6611 68.4263 19.2356C68.503 18.6503 68.5726 18.0146 68.635 17.3284C68.7961 15.5557 68.9093 13.4463 68.9745 11C67.3751 12.1671 65.66 13.3292 63.829 14.4862C57.798 18.2976 50.5108 22.0543 41.9675 25.7564C25.2622 32.9954 20.2506 36.058 15.239 41.6264C14.6314 42.3015 14.0637 42.9674 13.5359 43.6241C11.1615 46.5784 9.59457 49.3464 8.83527 51.9281L16.9095 47.4733C15.391 50.1531 14.0228 52.8115 12.8052 55.4483C11.4927 58.2906 10.355 61.1079 9.39211 63.9002C8.0785 67.7097 7.69454 72.4953 8.24023 78.257C8.29584 78.8441 8.36109 79.4414 8.436 80.0487C8.66472 81.9032 8.98342 83.8521 9.39211 85.8956L13.0116 80.0487C13.0116 81.7849 13.1451 83.4659 13.4121 85.0916C13.5696 86.051 13.7737 86.9912 14.0243 87.9122C15.2554 92.4377 17.6093 96.4987 21.0858 100.095C26.4714 105.666 33.0956 109.38 39.0582 112.722C42.0351 114.391 44.847 115.967 47.2575 117.636C50.1533 119.641 52.8152 122.046 55.2432 124.853C56.8616 126.724 58.376 128.773 59.7865 131C60.0751 128.196 60.2493 125.571 60.3089 123.125C60.5179 114.558 59.3228 108.18 56.7239 103.993C55.1884 101.519 53.7901 99.0257 52.529 96.5126C52.4995 96.4537 52.47 96.3948 52.4406 96.3359C52.071 95.5953 51.7133 94.8529 51.3674 94.1089C51.0543 93.4351 50.751 92.76 50.4574 92.0835C50.058 91.1631 49.6766 90.2402 49.3133 89.3147C49.085 88.7328 48.8637 88.15 48.6497 87.5661C48.4698 88.3146 48.3162 88.995 48.1891 89.6072C48.0146 90.4473 47.8897 91.159 47.8144 91.7425C47.6842 92.7511 47.5914 94.236 47.536 96.1972C46.4579 94.2193 45.6976 92.6243 45.2551 91.4122C45.1262 91.0591 45.0242 90.7384 44.9492 90.4502C44.8264 89.9781 44.7256 89.5059 44.647 89.0338C44.5093 88.2071 44.4393 87.3804 44.4371 86.5538C44.4332 85.1279 44.6309 83.702 45.0302 82.2761C45.4523 80.7685 46.0018 79.3196 46.6786 77.9296C47.0983 77.0676 47.567 76.2282 48.0847 75.4114C48.3791 74.9469 48.6894 74.4896 49.0155 74.0397C50.0373 72.6298 51.2147 71.2918 52.5476 70.0255C52.0564 70.1679 51.5888 70.3081 51.1446 70.4461C49.9573 70.8149 48.9379 71.1679 48.0861 71.5051C47.8009 71.618 47.5345 71.7291 47.2869 71.8384C46.9674 71.9795 46.6792 72.1177 46.4223 72.2529C45.4125 72.7843 44.2108 73.5367 42.8172 74.51C42.4542 74.7635 42.0782 75.032 41.6891 75.3155C42.4943 73.0609 43.579 71.1032 44.9431 69.4425C46.0864 68.0505 47.426 66.8671 48.9619 65.8923C49.8178 65.3492 50.7346 64.8707 51.7123 64.4571C54.6717 63.205 57.4916 62.2321 60.1718 61.5385C61.8623 61.101 63.4972 60.7745 65.0766 60.5592C64.6773 58.7956 64.3585 57.1573 64.1203 55.6443C63.8554 53.9621 63.6901 52.4348 63.6243 51.0623C63.4933 48.3307 63.7567 46.2123 64.4143 44.7074C64.7869 43.8548 65.2861 43.199 65.9118 42.7401C68.1419 41.1047 71.7216 41.2159 75.0824 42.141C76.8348 42.6233 78.5277 43.327 79.9388 44.1197C80.8894 44.6538 81.712 45.2283 82.3387 45.8028C83.7449 47.0917 85.7921 48.2821 88.1484 49.3945C88.3583 49.4936 88.5705 49.5921 88.7851 49.6899C90.5719 50.505 92.5124 51.2782 94.4712 52.0181C95.414 52.3742 96.361 52.7225 97.2972 53.0641C97.7075 53.2139 98.1157 53.3623 98.5206 53.5095L98.7657 53.5986C101.914 54.7434 105.393 55.6675 109.203 56.371C110.335 56.5801 111.496 56.7696 112.687 56.9397C112.871 58.4153 113.147 59.6847 113.515 60.7479C113.887 61.8245 114.354 62.6897 114.914 63.3434C116.028 64.6427 117.049 65.6636 117.977 66.406C116.677 71.6033 113.244 75.5012 107.675 78.0998C107.323 78.264 106.941 78.415 106.533 78.5538C105.877 78.7766 105.151 78.9684 104.367 79.1342C100.751 79.8992 95.8898 80.114 90.8654 80.2943C90.5005 80.3074 90.1347 80.3203 89.7685 80.3332C84.7459 80.5105 79.6396 80.6908 75.5191 81.3838C72.273 81.9296 69.6388 82.7937 68.1392 84.2251C65.5462 86.7002 64.6496 89.2751 64.6257 91.6541C64.5932 94.8949 66.18 97.7721 67.3039 99.5383C68.6032 101.58 70.181 104.364 72.0371 107.891C71.0098 104.039 70.1799 100.778 69.5475 98.1106C68.8086 94.994 68.3392 92.6857 68.1392 91.1856C67.8595 89.0874 68.7744 87.5514 70.2838 86.4717C71.7787 85.4024 73.8569 84.7806 75.935 84.5035C77.9184 84.239 83.8575 84.2258 89.9059 84.2251C90.2256 84.2251 90.5457 84.2251 90.8654 84.2251C97.2343 84.2251 103.499 84.2251 105.169 83.9466C105.937 83.8186 106.882 83.6318 107.925 83.3592C111.42 82.4454 116.024 80.5674 118.812 76.7077C121.225 73.3666 123.36 67.891 125.216 60.2807C122.548 58.9874 120.057 57.8876 117.741 56.9815C117.29 56.8051 116.846 56.6361 116.409 56.4744C115.195 56.0256 114.033 55.6333 112.921 55.2975C111.767 54.9486 110.668 54.6608 109.624 54.4339C105.403 53.5163 102.392 52.236 99.7137 50.9913C99.6343 50.9544 99.5553 50.9176 99.4764 50.8808C99.4764 50.8807 99.4765 50.8808 99.4764 50.8808C99.1588 50.7324 98.8454 50.5847 98.535 50.4383C97.5784 49.9874 96.6487 49.5491 95.703 49.1439C94.08 48.4483 93.0362 47.1735 92.1296 45.7013C91.7879 45.1465 91.4657 44.5637 91.1393 43.9733C90.2516 42.3677 89.3329 40.7059 87.9072 39.3991C86.4942 38.1038 83.5872 36.3604 80.1129 34.7795ZM73.0424 29.7053C73.4778 29.9136 73.9066 30.1386 74.3288 30.3805C74.9723 30.749 75.6005 31.1566 76.2135 31.6033C76.9127 30.5255 77.5535 29.5094 78.1358 28.5549C78.3882 28.1412 78.6296 27.739 78.8601 27.3484C79.5673 26.1496 80.171 25.06 80.6711 24.0794C80.7667 23.892 80.8586 23.7085 80.9466 23.529C81.9914 21.3992 82.6411 19.079 82.8956 16.5684C80.9216 18.0184 78.8912 19.3503 76.8044 20.5641C76.7004 20.6246 76.5962 20.6849 76.4919 20.7448C75.3047 21.4268 74.1085 22.0655 72.9034 22.6609C72.154 23.0312 71.4011 23.3847 70.6448 23.7214C70.3669 23.8452 70.0885 23.9666 69.8097 24.0858L68.1392 28.5406C69.1248 28.5221 70.0957 28.6501 71.0519 28.9244C71.476 29.0461 71.8972 29.1966 72.3155 29.3759C72.5598 29.4806 72.8021 29.5904 73.0424 29.7053ZM75.4132 52.1458C73.4633 51.6341 71.2242 50.4479 68.6961 48.587C70.9649 47.861 72.9231 47.4012 74.5707 47.2076C75.0906 47.1466 75.5796 47.112 76.0377 47.1039C77.0969 47.0853 77.9908 47.2084 78.7193 47.4733C78.7954 47.501 78.8711 47.5298 78.9465 47.5598C79.3661 47.727 79.7738 47.9301 80.1695 48.1692C81.6081 49.0388 82.8881 50.3846 84.0093 52.2065C83.6524 52.254 83.3033 52.2968 82.9621 52.3347C80.9192 52.5622 79.1561 52.619 77.6729 52.5053C76.9307 52.4484 76.2587 52.3488 75.6566 52.2065C75.576 52.1874 75.4948 52.1672 75.4132 52.1458Z" fill="white"/>
</svg>
